<?xml version="1.0" encoding="UTF-8" standalone="no"?>
<svg xmlns:dc="http://purl.org/dc/elements/1.1/" xmlns:cc="http://creativecommons.org/ns#" xmlns:rdf="http://www.w3.org/1999/02/22-rdf-syntax-ns#" xmlns:svg="http://www.w3.org/2000/svg" xmlns="http://www.w3.org/2000/svg" xmlns:sodipodi="http://sodipodi.sourceforge.net/DTD/sodipodi-0.dtd" xmlns:inkscape="http://www.inkscape.org/namespaces/inkscape" id="svg2" x="0" y="0" version="1.1" viewBox="0 0 950 620" xml:space="preserve" sodipodi:docname="world.svg" inkscape:version="1.0.1 (3bc2e813f5, 2020-09-07)"><metadata id="metadata700"><rdf:RDF><cc:Work rdf:about=""><dc:format>image/svg+xml</dc:format><dc:type rdf:resource="http://purl.org/dc/dcmitype/StillImage" /></cc:Work></rdf:RDF></metadata><defs id="defs698" /><sodipodi:namedview pagecolor="#ffffff" bordercolor="#666666" borderopacity="1" objecttolerance="10" gridtolerance="10" guidetolerance="10" inkscape:pageopacity="0" inkscape:pageshadow="2" inkscape:window-width="2560" inkscape:window-height="1017" id="namedview696" showgrid="false" inkscape:zoom="17.768421" inkscape:cx="732.66053" inkscape:cy="329.12677" inkscape:window-x="1912" inkscape:window-y="-8" inkscape:window-maximized="1" inkscape:current-layer="svg2" /> 
<path id="kalimantan" fill="#39393B" d="M781.7,324.4l-2.3,8.7l-12.5,4.2l-3.8-4.4l-1.8,0.5l3.4,13.1l5.1,0.6l6.8,2.6v2.6l3.1-0.6 l4.5-6.3v-5.1l2.5-5.1l2.8,0.6l-3.4-7.1l-0.5-4.6L781.7,324.4L781.7,324.4z" /> 
<path id="papua_new_guinea" fill="#39393B" d="M852.8,348.3l-0.4,24.4l3.5-0.2l4.6-5.4l3.9,0.2l2.5,2.2l0.8,6.9l8,4.2l2-0.8v-2.5 l-6.4-5.3l-3.2-7.3l2.5-1.2l-1.8-4l-3.7-0.1l-0.9-4.3l-9.8-6.6L852.8,348.3L852.8,348.3z" /> 
<path id="mexico" fill="#39393B" d="M137.5,225.4l4.8,15.2l-2.3,1.3l0.3,3l4.3,3.3v6.1l5.3,5l-2.3-14.9l-3-9.8l0.8-6.8l2.5,0.3 l1,2.3l-1,5.8l13,25.4v9.1l10.5,12.3l11.5,5.3l4.8-2.8l6.8,5.5l4-4l-1.8-4.5l5.8-1.8l1.8,1l1.8-1.8h2.8l5-8.8l-2.5-2.3l-9.8,2.3 l-2.3,6.5l-5.8,1l-6.8-2.8l-3-9.6l2.3-12.1l-4.6-2.9l-2.2-11.6l-1.9-0.8l-3.4,3.4l-3.9-2.1l-1.5-7.7L153,231l-7.9-6L137.5,225.4 L137.5,225.4z" /> 
<path id="estonia" fill="#39393B" d="M517.8,143.7l-5.6-0.2l-3.5,2.2l0,1.6l2.3,2.2l7.2,1.2L517.8,143.7L517.8,143.7z" /> 
<path id="algeria" fill="#39393B" d="M473.9,227.5l-4.1-1.4l-17,3.2l-3.7,2.8l2.3,11.7l-6.8,0.3l-4.1,6.5l-9.7,2.3l0,4.8l31.9,24.4 l5.4,0.5l18.1-14.1l-1.8-2.3l-3.4-0.5l-2-3.4V248l-1.4-1.4l0.2-3.6l-3.6-3.6l-0.5-3.9l1.6-1.1l-0.7-4.1L473.9,227.5L473.9,227.5z" /> 
<path id="morocco" fill="#39393B" d="M448.3,232.3h-11.5l-2.3,5l-5.2,2.5l-4.3,11.6l-8.4,5l-11.8,19.4l11.5-0.2l0.5-5.7h2.9v-7.8 H430l0.2-10l9.7-2.3l4.1-6.6l6.3-0.2L448.3,232.3L448.3,232.3z" /> 
<path id="mauretania" fill="#39393B" d="M404.9,276.7l2.2,2.9l-0.5,12.3l3.2-2.3l2.3-0.5l3.2,1.1l3.6,5l3.4-2.3l16.5-0.2l-4.1-27.6 l4.4,0l-8.2-6.3l0,4.1l-10.3,0l0,7.8l-3,0l-0.4,5.7L404.9,276.7L404.9,276.7z" /> 
<path id="senegal" fill="#39393B" d="M410.1,290.3l-3.9,2.9l-0.9,1.6l-0.3,1.6l1.5,1l4.8-0.1l3.1-0.8l0.4,1.5l-0.3,2l3,1.5l0.6,0.7 l3.9,0.1l0.1-1.7l-3.6-4.3l-4-5.4l-2.5-1L410.1,290.3L410.1,290.3z" /> 
<path id="gambia" fill="#39393B" d="M406.9,298.3l-0.1,1.1l6.9-0.1l0.4-1l-0.1-1l-2,0.8L406.9,298.3L406.9,298.3z" /> 
<path id="casamance" fill="#39393B" d="M406.8,300.2l1.2,3l0.7-1.9l8.4,0.9l-3.6-1.9L406.8,300.2L406.8,300.2z" /> 
<path id="bissau" fill="#39393B" d="M408.6,304.5l1.4,2.8l3.9-3.4l0-1l-4.6-0.7L408.6,304.5L408.6,304.5z" /> 
<path id="guinee" fill="#39393B" d="M410.4,307.9l3,4.7l4-3.4l4.1-0.2l3.4,4.5l2.9,1.9l1.1-2.1l1-0.5l-0.1-4.6l-1.9-5.5l-5.9,0.6 l-7.3-0.6l0,1.9L410.4,307.9L410.4,307.9z" /> 
<path id="sierra_leone" fill="#39393B" d="M413.9,313.1l5.6,5.5l4-4.9l-2.5-4l-3.5,0.4L413.9,313.1L413.9,313.1z" /> 
<path id="liberia" fill="#39393B" d="M420.2,319.2l11,7.3l-0.3-5.6l-3.3-3.9l-3.2-2.9L420.2,319.2L420.2,319.2z" /> 
<path id="ivoire" fill="#39393B" d="M432.1,326.8l4.3-3l5.3-0.9l5.4,1.2l-2.8-4.2l-0.8-2.6l0.8-7.6l-4.9,0.2l-2.2-2.1l-4.6,0.1 l-2.2,0.4l0.2,5.1l-1.2,0.5l-1.4,2.6l3.6,4.2L432.1,326.8L432.1,326.8z" /> 
<path id="mali" fill="#39393B" d="M419.5,295.8l3.1-2.1l17.1-0.1l-4-27.5l4.5-0.1l21.9,16.7l2.9,0.4l-1.1,9.3l-13.8,1.3l-10.6,7.9 l-1.9,5.4l-7.4,0.3l-1.9-5.4l-5.6,0.4l0.2-1.8L419.5,295.8L419.5,295.8z" /> 
<path id="burkina" fill="#39393B" d="M450.6,294.3l3.6-0.3l6,8.4l-5.5,4.2l-4-1l-5.4,0.1l-0.9,3.2l-4.5,0.2l-1.2-1.7l1.6-5.1 L450.6,294.3L450.6,294.3z" /> 
<path id="niger" fill="#39393B" d="M460.9,302l2.5-0.1l2.3-3.5l3.9-0.7l4.1,2.5l8.8,0.3l6.8-2.8l2.5-2.2l0.2-2.9l4.7-4.8l1.3-10.5 l-3.1-6.5l-8-1.9l-18.4,14.4l-2.6-0.3l-1.1,10l-9.4,0.9L460.9,302L460.9,302z" /> 
<path id="ghana" fill="#39393B" d="M444.3,317l1.1,2.6l2.9,4.6l1.6-0.1l4.4-2.5l-0.3-14.3l-3.4-1l-4.8,0.1L444.3,317L444.3,317z" /> 
<path id="togo" fill="#39393B" d="M455.2,321.3l2.7-1.6l-0.1-10.4l-1.7-2.8l-1.1,0.9L455.2,321.3L455.2,321.3z" /> 
<path id="benin" fill="#39393B" d="M458.7,319.5h2.1l0.1-6l2.7-3.9l-0.1-6.8l-2.4-0.1l-4.2,3.3l1.7,3.3L458.7,319.5L458.7,319.5z" /> 
<path id="nigeria" fill="#39393B" d="M461.6,319.4l3.9,0.2l4.7,5.3l2.3,0.6l1.8-0.9l2.7-0.4l0.9-3.8l3.7-2.5l4-0.2l7.4-13.6 l-0.1-3.1l-3.4-2.6l-6.8,3l-9.1-0.1l-4.4-2.8l-3.1,0.7l-1.6,2.8l-0.1,8l-2.6,3.7L461.6,319.4L461.6,319.4z" /> 
<path id="tunisia" fill="#39393B" d="M474.9,227.3l5.5-2.2l1.8,1.2l0.1,1.4l-0.9,1.1l0.1,2l0.9,0.5v3.5l-1,1.6l0.1,1.1l3.7,1.3 l-3,4.6l-1.2-0.1l-0.2,3.7l-1.3,0.2l-1.1-1l0.3-3.8l-3.6-3.5l-0.5-3.1l1.8-1.4L474.9,227.3L474.9,227.3z" /> 
<path id="libya" fill="#39393B" d="M480,248l1.6-0.3l0.5-3.6h0.8l3.2-5.2l7.9,2.3l2.1,3.3l7.7,3.5l4-1.7l-0.4-1.7l-1.8-1.7l0.2-1.2 l2.9-2.4h5.7l2.2,2.9l4.5,0.7l0.6,36.9l-3.4-0.1l-20.4-10.6l-2.2,1.3l-8.4-2.1l-2.3-3l-3.3-0.5l-1.7-3L480,248L480,248z" /> 
<path id="egypt" fill="#39393B" d="M521.9,243.1l2.7,0.1l5.2,1.4l2.5,0.1l3.1-2.6h1.4l2.6,1.4h3.3l0.6,0l2.1,6l0.6,1.9l0.5,2.9 l-1,0.7l-1.7-0.9l-2-6.4l-1.8-0.1l-0.1,2.2l1.2,3.7l9.4,11.6l0.2,5l-2.7,3.1l-25.6-0.3L521.9,243.1L521.9,243.1z" /> 
<path id="chad" fill="#39393B" d="M492.8,296l0.1-3l4.7-4.6l1.3-11.3l-3.2-6l2.2-1.1l21.4,11.1l-0.1,10.9l-3.8,3.2v5.6l2.5,4.8h-4.4 l-7.2,7.1l-0.2,2.2l-5.3-0.1l-0.1,1l-3-0.4l-2.1-3.9l-1.6-0.8l0.2-1.2l2-1.5v-7l-2.7-0.4l-3.3-2.4L492.8,296L492.8,296L492.8,296z" /> 
<path id="south_sudan" fill="#39393B" d="M549.1,310.3l-2.9-4.9l-0.3-3.6l-0.7,0.1l-0.2,1.1l-3.9,5.6 l-3.1-1.5l-3.1,2.6l-6.4-0.4l-2.8-2.2l-4,2.1l-0.2,1.4l-1.2,0.7l12.3,12.7l6.7,0.4l1,1.5l9.6,0.2l0.1-2.2l0.8-1.5l3.2-0.4l-4-5.8 h-2.9l-0.8-4.1l2.4-1L549.1,310.3z" /> 
<path id="sudan" fill="#39393B" d="M552,270.6l-3.7,3.7l-25.8-0.2l0.3,6.6l-2.5-0.1l-0.2,11.8l-3.7,3.2l-0.2,4.9l2.7,5.3l2.9,1.7 l0,0.4l4-2.1l3.1,2.4l5.6,0.3l3.3-2.7l2.9,1.4l3.3-4.7l0.3-1.6l2.5-0.5l0.4,4.5l2.5,4.2l6-12.9v-7.8l4.4-5.1L552,270.6z" /> 
<path id="cameroon" fill="#39393B" d="M477.8,324.3l3.2,3l-0.2,4.6l17.7-0.4l1.4-1.6l-5.1-5.5l-0.8-2l3.2-6l-2.2-4l-1.8-1v-2 l2.1-1.4l0.1-6.3l-1.7-0.2l0,3.3l-7.4,13.9l-4.5,0.2l-3.1,2.1L477.8,324.3L477.8,324.3z" /> 
<path id="eritrea" fill="#39393B" d="M556.7,294.7l-0.3-5.9l4-4.6l1.1,0.8l2,6.5l9.4,7l-1.7,2.1l-6.8-5.9L556.7,294.7L556.7,294.7z" /> 
<path id="djibouti" fill="#39393B" d="M571.5,301.5l-0.6,3.4l4-0.1l0.1-4.9l-1.5-0.9L571.5,301.5L571.5,301.5z" /> 
<path id="ethiopia" fill="#39393B" d="M549.5,311.8l7.3-16.2l7.2,0l6.4,5.6l-0.5,4.6h5l0.5,2.8l8,4.8l5,0.3l-9.4,10.1l-13,4h-3.2 l-5.7-4.9l-2.3-1l-4.4-6.5l-2.9,0l-0.3-3L549.5,311.8L549.5,311.8z" /> 
<path id="somaliland" fill="#39393B" d="M575.7,305l4.1,2.8l1.2-0.1l10.1-3.5l1.2,3.7l-0.8,3.1l-2.2,1.7l-5.5-0.4l-7.8-4.8 L575.7,305L575.7,305z" /> 
<path id="soqotra" fill="#39393B" d="M599.6,299.6l2.1,2.4l2.9-1.7l1-0.4l-1.3-1.3l-2.5,0.8L599.6,299.6L599.6,299.6z" /> 
<path id="somalia" fill="#39393B" d="M592,304l4.4-1.7l1.5,0.9l-0.2,3.9l-4,11.5L571.9,342l-2.5-1.7l-0.2-9.9l3.3-3.8l7-2.1 l10.2-10.8l2.7-2.4l0.8-3.5L592,304L592,304z" /> 
<path id="centrafrique" fill="#39393B" d="M495.7,324l4.7,5l1.8-2.4l2.9,0.1l0.6-2.3l2.9-1.8l6,4.1l3.5-3.4l13.4,0.6L519,311.2 l1.7-1l0.2-2.3l-2.8-1.3h-4.1l-6.7,6.6l-0.2,2.7l-5.3-0.2l-0.2,1.2l-3.5-0.4l-3.1,5.9L495.7,324L495.7,324z" /> 
<path id="sao_tome" fill="#39393B" d="M470.7,337.1l1.1-0.6l0.9,0.7l-0.9,1.3l-1-0.4L470.7,337.1L470.7,337.1z" /> 
<path id="principe" fill="#39393B" d="M473,333.5l1.7-0.3l0.6,1.1l-0.9,0.9l-0.9-0.1L473,333.5L473,333.5z" /> 
<path id="bioko" fill="#39393B" d="M476.8,327.4l-0.5,2l1.4,0.8l1.3-1l-0.5-2L476.8,327.4L476.8,327.4z" /> 
<path id="gabon" fill="#39393B" d="M486.4,332.6l-0.1,2.5l-5.6-0.1l-3.5,6.7l8.1,8.9l2-1.7l-0.1-1.7l-1.4-0.6v-1.2l3.1-2l2.8,2.1 l3,0.1l-0.1-10.5l-4.8-0.2l-0.1-2.2L486.4,332.6L486.4,332.6z" /> 
<path id="equatorial_guinea" fill="#39393B" d="M481,332.7l-0.1,1.4l4.5,0.2l-0.1-1.6L481,332.7L481,332.7z" /> 
<path id="congo" fill="#39393B" d="M491,332.5l-0.1,1.5l4.8,0.1l0.2,12.4l-4.4-0.1l-2.5-2l-2,1.1l-0.1,0.5l1,0.5l0.3,2.5l-2.7,2.3 l0.6,1.2l3-2.3h1.4l0.5,1.4l1.9,0.8l6.1-5.2l-0.1-3.8l1.3-3.1l3.9-2.9l1-9.8l-2.8,0l-3.2,4.4L491,332.5L491,332.5z" /> 
<path id="cabinda" fill="#39393B" d="M486.5,353.2l1.7,2.3l2.3-2.1l-0.7-2.2l-0.6,0L486.5,353.2L486.5,353.2z" /> 
<path id="drc" fill="#39393B" d="M489.4,355.7l10.3-0.2l2.1,3l-0.1,2.2l0.8,0.7h5.1l1.5-2.9h2.1l0.9,0.9l2.9-0.1l0.8,10.1l5,0.2v0.8 l13.3,6l0.6,1.2h2.8l-0.3-4.2l-5-2.4l0.3-3.2l2.2-5.1l5-0.2l-4.3-14.1l0.1-6l6.7-10.5l0.1-1.5l-1-0.5l0-2.9l-1.2-0.1l-1.2-1.6 l-20.3-0.9l-3.7,3.6l-6.1-4l-2.1,1.3l-1.6,13.1l-3.9,3l-1.2,2.6l0.2,3.9l-7,5.7l-1.9-0.8l0.3,1.1L489.4,355.7L489.4,355.7z" /> 
<path id="rwanda" fill="#39393B" d="M537.8,339.9l2.8,2.6l-0.1,2.8l-4.4,0.1v-3.1L537.8,339.9L537.8,339.9z" /> 
<path id="burundi" fill="#39393B" d="M536.2,346.2l4.3-0.1l-1.1,3.7l-1.1,0.9H537l-0.9-2.5L536.2,346.2L536.2,346.2z" /> 
<path id="uganda" fill="#39393B" d="M538.3,339.1l3,2.8l1.9-1.2l5.1-0.8l0.9,0.1l0.3-2l2.9-6.1l-2.4-5.1l-7.9,0l0,2.1l1.1,1 l-0.2,2.1L538.3,339.1L538.3,339.1z" /> 
<path id="kenya" fill="#39393B" d="M550.8,326.5l2.7,5.2l-3.2,6.7l-0.4,2l15.9,9.9l4.9-7.8l-2.5-2l0-10.2l3.1-3.4l-5,1.7l-3.8,0 l-5.9-5l-1.9-0.8l-3.5,0.3l-0.6,1L550.8,326.5L550.8,326.5z" /> 
<path id="tanzania" fill="#39393B" d="M550.6,371.4l17.5-2.1l-3.9-7.6l-0.2-7.3l1.3-3.5l-16.6-10.4l-5.2,0.9l-1.8,1.3l-0.2,3 l-1.2,4.2l-1.2,1.5l-1.8,0.2l3.3,11.6l5.5,2.6l3.8,0.1L550.6,371.4L550.6,371.4z" /> 
<path id="zambia" fill="#39393B" d="M514.5,384.7l3.2,4.4l4.9,0.3l1.7,1l5.1,0.1l4.4-6.2l12.4-5.5l1.1-4.9l-1.4-7l-6.5-3.7l-4.3,0.3 l-2.2,4.8l0.1,2.2l5.1,2.5l0.3,5.4l-4.4,0.2l-1.1-1.8l-12.1-5.2l-0.4,4l-5.7,0.2L514.5,384.7L514.5,384.7z" /> 
<path id="angola" fill="#39393B" d="M488.6,356.7l3.4,12.7l-0.1,4l-5,5.4l-0.8,8.7l19.2,0.2l6.2,2.3l5.2-0.7l-3-3.8l0-10.7l5.9-0.3 v-4.2l-4.8-0.2l-1-9.9l-2,0l-1.1-1l-1.2,0.1l-1.6,3.1H502l-1.4-1.4l0.4-2l-1.7-2.4L488.6,356.7L488.6,356.7z" /> 
<path id="malawi" fill="#39393B" d="M547.2,379.4l3.1,3.3l-0.1,4.2l0.6,1.8l4.1-4.5l-0.5-5.7l-2.2-1.7l-2-10l-3.4-0.1l1.5,7.2 L547.2,379.4L547.2,379.4z" /> 
<path id="mozambique" fill="#39393B" d="M541.2,413.3l2.7,2.2l6.3-3.9l1-5.7v-9.5l10.2-8.3l1.7,0.1l6.2-5.9l-1-12.2l-16.3,2.1 l0.5,3.7l2.8,2.2l0.7,6.6l-5.5,5.4l-1.3-3l0.2-4l-3.2-3.4l-7.8,3.6l7.2,3.7l0.2,10.7l-4.8,7.1L541.2,413.3L541.2,413.3z" /> 
<path id="zimbabwe" fill="#39393B" d="M524.7,392.3l9,10.1l6.9,1.8l4.6-7.2l-0.4-9.6l-7.5-3.9l-2.8,1.3l-4.2,6.4l-5.8-0.1 L524.7,392.3L524.7,392.3z" /> 
<path id="namibia" fill="#39393B" d="M496.5,422l3.4,0.2l2,2l4.7,0.1l1.1-13.3v-8.7l3-0.6l1.1-9.1l7.6-0.2l2.7-2.2l-4.5-0.2 l-6.2,0.8l-6.6-2.4h-18.7l0.5,5.3l6.2,9.2l-1.1,4.7l0.1,2.5L496.5,422L496.5,422z" /> 
<path id="botswana" fill="#39393B" d="M508.5,411.2l2.1,0.7l-0.3,6.1l2.2,0.3l5.1-4.6l6.1,0.7l1.6-4.1l7.7-7l-9.3-10.7l-0.1-1.8 l-1-0.3l-2.8,2.6l-7.3,0.2l-1,9.1l-2.9,0.7L508.5,411.2L508.5,411.2z" /> 
<path id="swaziland" fill="#39393B" d="M540.9,414l-2.5,0.4l-1.1,3l1.9,1.8h2.3l2-2.8L540.9,414L540.9,414z" /> 
<path id="lesotho" fill="#39393B" d="M527.4,425.4l3-2.4l1.4,0.1l1.7,2.2l-0.2,2.2l-2.9,1.1v0.8l-3.2-0.2l-0.8-2.4L527.4,425.4 L527.4,425.4z" /> 
<path id="south_africa" fill="#39393B" d="M534.2,403.6l-7.9,7.3l-1.9,4.5l-6.3-0.8l-5.2,4.6l-3.5-0.3l0.3-6.4l-1.2-0.4l-0.9,13.1 l-6.1-0.1l-1.9-2.2l-2.7,0l2.5,7.1l4.4,4.2l-3.1,3.7l2,4.6l4.7,1.8l3.8-3.2l10.8,0.1l0.8-1l4.8-0.8l16.2-16.1l-0.1-5.1l-1.7,2.2 h-2.6l-3.2-2.6l1.6-4l2.8-0.6l-0.3-8.2L534.2,403.6L534.2,403.6z M530.4,422.1l1.5-0.1l2.5,2.7l-0.1,3.1l-2.9,1.5l-0.2,1l-4.4,0 l-1.4-3.3l1.3-2.4L530.4,422.1L530.4,422.1z" /> 
<path id="greenland" fill="#39393B" d="M321.1,50.1l-1.4,2.2l2.5,2.5l-1.1,2.5l3.5,4.6l4.4-1.4l5.7-0.5l6.5,7.1l4.4,11.7l-3.5,7.3 l4.9-0.8l2.7,1.6l0.3,3.5l-6,0.3l3.3,3.3l4.1,0.8l-9,12l-1.1,7.3l1.9,6l-1.4,3.5l2.5,7.6l4.6,5.2l1.4-0.3l3-0.8l0.3,4.4l1.9,2.7 l3.5-0.3l2.7-10.1l8.2-10.1L382,117l7.6-9.5l3.5,1.6h7.3l6-6l7.3-3l0.8-4.6l-4.6-4.1L406,90l-2.2-5.7l5.2-3l8.2,4.3l2.7-3l-4.4-2.4 l9.3-12.5l-1.6-5.4l-4.4-0.3l1.6-4.9l5.4-2.5l11.1-9.8l-3.3-3.5l-12.5,1.1l-6.5,6.5l3.8-8.4l-4.4-1.1l-2.5,4.3l-3.5-3l-9.8,1.1 l2.7-4.3l16-0.5l-4.1-5.4l-17.4-3.3l-7.1,1.1l0.3,3.5l-7.3-2.5l0.3-2.5l-5.2,1.1l-1.1,2.7l5.4,1.9l-5.7,4.1l-4.1-4.6l-5.7-1.6 l-0.8,4.4h-5.7l-2.2-4.6l-9-1.4l-4.9,2.5l-0.3,3.3l-6.3-0.8l-3.8,1.6l0.3,3.8v1.9l-7.1,1.4l-3.3-2.2l-2.2,3.5l3.3,3.5l6.8-0.8 l0.5,2.2l-5.2,2.5L321.1,50.1L321.1,50.1z" /> 
<path id="disko" fill="#39393B" d="M342.9,92.5l1.6,2.4l-0.8,3h-1.6l-2.2-2.4l0.5-1.9L342.9,92.5L342.9,92.5z" /> 
<path id="milne" fill="#39393B" d="M410.9,85.7l4.6,1.4l-0.3,3.8l-4.9-2.4l-1.1-1.4L410.9,85.7L410.9,85.7z" /> 
<path id="east_antarctica" fill="#39393B" d="M388.5,623l3.8-5.1l14.9-7.7l2.5-5.5l6.4-1.3l6-7.7l6-0.4l1.3-6l5.1-3.8l4.3,1.3 l12.3-3.8l3,3l5.5,0.4l5.1-2.5l30.6-0.4l11.1,3l14-3l4.7,0.4l1.3-4.3h4.7l6.4,6.8l11.9-7.7l13.2-3.8l4.7,3l0.4-6l6.8-0.8l7.2,3.4 v3.4l18.3,7.7l5.1-0.4l2.1,2.5l-6,6.8v4.7l5.5,3l1.3-3l25.1-9.8l18.3-1.7l3.8,2.1l14.5,2.1l3.4,1.3l4.7-2.5l6.8-0.4l6.4,4.7l0.4,5.1 l14.5-3l2.1,0.8l0.8,4.7l13.2,4.3l4.3-3l0.4,3.8l4.7,0.4l6.4,5.1l6-2.5l5.1,0.4h3.8l2.5-0.4l0.4,6.8l8.5,5.1L388.5,623L388.5,623z" /> 
<path id="antarctic_peninsula" fill="#39393B" d="M260,623l13.6-3.8l0.9-3.8l14.5-3.4l8.5,2.1l18.7-7.7l-0.4-8.1l-5.5-8.5l1.3-2.1 l-2.1-5.5v-6h3.4l-2.1-4.3l15.3-13.2l-0.4,6l-3,0.8l-3,5.1l3,1.3l-3,4.3l-3.4-0.8l-1.7,3.8l0.4,5.1l5.1-0.4l3.4,4.7l1.3,6l6.8,8.5 l0.4,10.6l-2.5,1.3l2.1,5.5l-1.3,2.1L260,623L260,623z" /> 
<path id="thurston" fill="#39393B" d="M250.2,615.3l5.1-0.8l2.1,1.7l-0.9,2.1l-0.4,2.5l-3,1.3l-2.1-2.5h-8.5v-1.7l3.8-0.8 L250.2,615.3L250.2,615.3z" /> 
<path id="alexander" fill="#39393B" d="M304.7,587.7l-4.3,0.8l2.5,4.7l3,1.3l-1.3,2.5v1.7l-8.1,2.1l0.9,2.5l3.4,1.3l3.8-3l3.4,0.8 l-2.1,3.4l1.3,0.8l3.8-1.7l3-5.5L304.7,587.7L304.7,587.7z" /> 
<path id="smyley" fill="#39393B" d="M295.8,606.8l-3.4,3l3,0.8l3.8,0.8l3.8-2.5l-3.8-0.8L295.8,606.8L295.8,606.8z" /> 
<path id="robert" fill="#39393B" d="M319.6,556.5l-2.5,0.5l-0.5,2.5l4.8-0.7L319.6,556.5L319.6,556.5z" /> 
<path id="king_george" fill="#39393B" d="M323.6,552.5l-3,0.6l0.6,2.3l3.6-0.1L323.6,552.5L323.6,552.5z" /> 
<path id="james_ross" fill="#39393B" d="M328.3,557.2l0,3.6l2,0.1l1.7-2.6L328.3,557.2L328.3,557.2z" /> 
<path id="elephant" fill="#39393B" d="M329.3,547.2l-2.2,0.8l-0.5,2l1.9,0.7l3.1-2.2L329.3,547.2L329.3,547.2z" /> 
<path id="australia" fill="#39393B" d="M761.2,428l-0.3,25.4l-3.9,2.9l-0.3,2.5l5.3,3.6l13.1-2.5h6.7l2.5-3.6l14.9-2.9l10.6,3.2 l-0.7,4.3l1.4,4.3l8.2-1.4l0.3,2.1l-5.3,3.9l1.8,1.4l3.9-1.4l-1.1,11.8l7.5,5.7l4.3-1.4l2.1,2.1l12.4-1.8l11.7-19l4.3-1.1l8.5-15.7 l2.1-13.6l-5.3-6.8l2.1-1.4l-4.3-13.2l-4.6-3.2l0.7-17.9l-4.3-3.2l-1.1-10h-2.1l-7.1,23.6l-3.9,0.4l-8.9-8.9l5-13.2l-9.2-1.8 L818,384l-2.8,8.2l-4.6,1.1l-0.3-5.7L791.4,399l0.3,4.3l-2.8,3.9h-7.1l-15.3,6.4L761.2,428L761.2,428z" /> 
<path id="tasmania" fill="#39393B" d="M825.7,496.3l-1.8,7.1l0.3,5l5.3-0.4l6-9.3L825.7,496.3L825.7,496.3z" /> 
<path id="new_zealand_north_island" fill="#39393B" d="M913,482l1.1,11.8l-1.4,5.4l-5.3,3.9l0.3,4.6v5l1.4,1.8l14.5-12.5v-2.9h-3.5 l-5-16.8L913,482L913,482z" /> 
<path id="new_zealand_south_island" fill="#39393B" d="M902.4,507.7l2.8,5.4l-7.8,7.5l-0.7,3.9l-5.3,0.7l-8.9,8.2l-8.2-3.9l-0.7-2.9 l14.9-6.4L902.4,507.7L902.4,507.7z" /> 
<path id="new_caledonia" fill="#39393B" d="M906.6,420.5l-0.3,1.8l4.6,6.4l2.5,1.1l0.3-2.5L906.6,420.5L906.6,420.5z" /> 
<path id="sumatra" fill="#39393B" d="M722.5,317.6l-0.3,2.3l6.8,11.4h2l14.2,23.7l5.7,0.6l2.8-8.3l-4.5-2.9l-0.8-4.6L722.5,317.6 L722.5,317.6z" /> 
<path id="east_malaysia" fill="#39393B" d="M764.1,332.9l3,3.5l11.6-4l2.3-8.8l5.2-0.4l4.7-3.4l-6.1-4.5l-1.4-2.5l-3,5.6l1.1,3.2 l-1.8,2.7l-3.5-0.9l-8.4,6.2l0.2,3.6L764.1,332.9L764.1,332.9z" /> 
<path id="brunei" fill="#39393B" d="M779.8,319.3l-2.9,3.5l2.4,0.7l1.3-1.9L779.8,319.3L779.8,319.3z" /> 
<path id="sulawesi" fill="#39393B" d="M789.5,349.1l2.3,2.8l-1.5,4.2v0.8h3.3l1.2-10.4l1.1,0.3l2,9.5l1.9,0.5l1.8-4.1l-1.8-6.1 l-1.5-2.7l4.6-3.4l-1.1-1.5l-4.4,2.9h-1.2l-2.2-3.2l0.7-1.4l3.6-1.8l5.5,1.7l1.7-0.1l4.1-3.9l-1.7-1.7l-3.8,3h-2.5l-3.7-1.8 l-2.7,0.1l-3,4.8l-1.9,8.2L789.5,349.1L789.5,349.1z" /> 
<path id="maluku" fill="#39393B" d="M814.2,330.5l-1.9,4.5l3,3.9h1l1.3-2.6l0.7-0.9l-1.3-1.4l-1.9-0.7L814.2,330.5L814.2,330.5z" /> 
<path id="seram" fill="#39393B" d="M820,345.5l-4,0.9l-1.2,1.3l1,1.7l2.7-1l1.7-1l2.5,2l1.1-0.9l-2-2.4L820,345.5L820,345.5z" /> 
<path id="java" fill="#39393B" d="M753.2,358.3l-2.8,1.9l0.6,1.6l8.8,2l4.4,0.8l1.9,2l5,0.4l2.4,2l2.2-0.5l2-1.8l-3.6-1.7l-3.1-2.7 l-8.2-2L753.2,358.3L753.2,358.3z" /> 
<path id="bali" fill="#39393B" d="M781.8,366.9l-2.2,1.2l1.3,1.4l3.1-1.2L781.8,366.9L781.8,366.9z" /> 
<path id="lombok" fill="#39393B" d="M785.5,366l0.4,1.9l2.3,0.6l0.9-1.1l-1-1.5L785.5,366L785.5,366z" /> 
<path id="sumba" fill="#39393B" d="M790.9,371l-2.8,0.4l2.5,2.1h2L790.9,371L790.9,371z" /> 
<path id="flores" fill="#39393B" d="M791.7,367.7l-0.6,1.2l4.4,0.7l3.4-2l-2-0.6l-3.1,0.9l-1.2-1L791.7,367.7L791.7,367.7z" /> 
<path id="timor" fill="#39393B" d="M806.1,368.4l-5.1,4.3l0.5,1.1l2.2-0.4l2.5-2.4l5-0.7l-1-1.7L806.1,368.4L806.1,368.4z" /> 
<path id="new_ireland" fill="#39393B" d="M880.5,349l-0.9,1.3l4.8,4.3l0.7,2.5l1.3-0.1l0.2-2.6l-1.5-1.3L880.5,349L880.5,349z" /> 
<path id="new_britain" fill="#39393B" d="M882.9,355l-1,0.2l-0.6,2.6l-1.8,1.2l-5.5,1l0.2,2.1l5.8-0.3l3.7-2.3l-0.2-4L882.9,355 L882.9,355z" /> 
<path id="bougainville" fill="#39393B" d="M889.4,359.5l1.2,3.5l2.2,2.1l0.7-0.6l-0.2-2.3l-2.5-3L889.4,359.5L889.4,359.5z" /> 
<path id="choiseul" fill="#39393B" d="M895.4,364.6l0.2,2.3l1.4,1.3l1.3-0.8l-1.2-2.4L895.4,364.6L895.4,364.6z" /> 
<path id="new_georgia" fill="#39393B" d="M897.2,370.3l-1.2,1.3l1.2,2.3l1.5,0.4l-0.1-1.5L897.2,370.3L897.2,370.3z" /> 
<path id="santa_isabel" fill="#39393B" d="M900,369l1,2.5l2,2.4l1.1-1.8l-1.5-2.5L900,369L900,369z" /> 
<path id="malaita" fill="#39393B" d="M905.1,372.7l0.6,3.1l1.4,1.9l1.2-2.4L905.1,372.7L905.1,372.7z" /> 
<path id="santa_ana" fill="#39393B" d="M906.7,379.6l-0.5,0.9l1.7,2.2l1.2,0.1l-0.7-2.9L906.7,379.6L906.7,379.6z" /> 
<path id="rennell" fill="#39393B" d="M903,384l-1.8,0.8l1.5,2.1l1.3-0.7L903,384L903,384z" /> 
<path id="espiritu_santo" fill="#39393B" d="M920.9,397.2l-1.2,1.7l0.5,1.9l0.6,0.4l1.1-1.5L920.9,397.2L920.9,397.2z" /> 
<path id="malakula" fill="#39393B" d="M921.5,402.3l0.1,1.4l1.3,0.4l0.9-0.5l-0.9-1.5L921.5,402.3L921.5,402.3z" /> 
<path id="efate" fill="#39393B" d="M923.5,414.4l-0.6,0.9l0.9,1l1.5-0.5L923.5,414.4L923.5,414.4z" /> 
<path id="fiji" fill="#39393B" d="M948.6,412.3l-1.2,1.7l-0.1,1.9l1.4,1.5L948.6,412.3L948.6,412.3z" /> 
<path id="palawan" fill="#39393B" d="M789.4,297.5l-0.9,1.6l-0.5,2l-4.8,6.1l0.3,1.3l2-0.3l6.2-6.9L789.4,297.5L789.4,297.5z" /> 
<path id="negros" fill="#39393B" d="M797.1,295.2l-0.1,5l1.8,1.8l0.7,3.6l1.8,0.4l0.9-2.2l-1.4-1.1l-0.4-6.3L797.1,295.2 L797.1,295.2z" /> 
<path id="cebu" fill="#39393B" d="M802.3,297.1l-0.1,4.4l1,1.7l1.8-2.1l-0.5-3.9L802.3,297.1L802.3,297.1z" /> 
<path id="samar" fill="#39393B" d="M803.4,293.3l1.8,2.4l0.9,2.3h1.6l-0.3-4l-1.8-1.3L803.4,293.3L803.4,293.3z" /> 
<path id="path7462" fill="#39393B" d="M807,302.4l0.4,2.9l-3.3,2.7l-2.8,0.3l-3,3.2l0.1,1.5l2.8-0.9l1.9-1.3l1.6,4.1l2.9,2l1.2-0.4 l1-1.3l-2.3-2.3l1.3-1.1l1.5,1.3l1-1.7l-1-2.1l-0.2-4.7L807,302.4L807,302.4z" /> 
<path id="luzon" fill="#39393B" d="M791.4,273l-2.6,1.8l-0.3,5.8l4,7.8l1.3,1.1l1.7-1.2l3,0.5l0.6,2.6l2.2,0.2l1-1.4l-1.3-1.8 l-1.6-1.5l-3.4-0.4l-1.8-3l2.1-3.2l0.2-2.8l-1.4-3.6L791.4,273L791.4,273z" /> 
<path id="mindoro" fill="#39393B" d="M792.7,290.2l0.8,2.7l1.3,0.9l1-1.3l-1.5-2.1L792.7,290.2L792.7,290.2z" /> 
<path id="hainan" fill="#39393B" d="M759.8,270.2l-2.4,0.7l-1.7,2.1l1.4,2.8l2.1,0.2l2.4-2.1l0.6-2.8L759.8,270.2L759.8,270.2z" /> 
<path id="taiwan" fill="#39393B" d="M787.5,248.3l-3.5,2.7l-0.2,5.2l3.1,3.6l0.8-0.7L787.5,248.3L787.5,248.3z" /> 
<path id="kyushu" fill="#39393B" d="M803.2,216.4l-1.6,1.6l0.7,2.3l1.4,0.1l1,5l1.2,1.3l2-1.8l0.9-3.3l-2.5-3.6L803.2,216.4 L803.2,216.4z" /> 
<path id="shikoku" fill="#39393B" d="M812,213.1l-2.8,2.6l-0.1,3l0.7,0.9l3.7-3.2l-0.3-3.2L812,213.1L812,213.1z" /> 
<path id="honshu" fill="#39393B" d="M808.2,207l-4.9,5.6l0.9,1.4l2.4,0.3l4.5-3.5l3.2-0.6l2.9,3.4l2.2-0.8l0.9-3.3l4.1-0.1l4-4.8 l-2.1-8l-1-4.2l2.1-1.7l-4.8-7.2l-1.2,0.1l-2.6,2.9v2.4l1.2,1.4l0.4,6.4l-3,3.7l-1.7-1.1l-1.3,3l-0.3,2.8l1,1.6l-0.7,1.3l-2.2-1.8 h-1.5l-1.3,0.8L808.2,207L808.2,207z" /> 
<path id="hokkaido" fill="#39393B" d="M816.4,163.4l-1.5,1.4l0.8,2.9l1.3,1.4l-0.1,4.4l-1.7,0.7l-1.3,3l3.9,5.4l2.6-0.9l0.5-1.4 l-2.8-2.5l1.7-2.2l1.8,0.3l1.4,1.5l0.1-3.2l3.9-3.2l2.2-0.6l-1.8-3.1l-0.9-1.4l-1.4,1l-1.2,1.5l-2.7-0.6l-2.8-1.8L816.4,163.4 L816.4,163.4z" /> 
<path id="iturup" fill="#39393B" d="M830.9,160.4l-2.7,3.8l0.2,1.8l1.3-0.6l3.2-3.9L830.9,160.4L830.9,160.4z" /> 
<path id="urup" fill="#39393B" d="M834.4,155l-1,2.6l0.1,1.7l1.6-1.1l1.5-3.1V154L834.4,155L834.4,155z" /> 
<path id="paramushir" fill="#39393B" d="M840,132l-1.2,1.5l0.1,2.4l1.2-0.1l1.9-3.4L840,132L840,132z" /> 
<path id="onekotan" fill="#39393B" d="M837.8,137.9v4.2l1.3,0.5l1-1.5v-3.3L837.8,137.9L837.8,137.9z" /> 
<path id="sakhalin" fill="#39393B" d="M798.6,122.6l-0.1,6.2l7.7,11.9l2.8,10.4l4.9,9.3l1.9,0.7l1.6-1.4l0.8-2.2l-7-7.6l0.2-3.9 l1.5-0.7l0.4-2.3l-13.7-19.4L798.6,122.6L798.6,122.6z" /> 
<path id="bering_island" fill="#39393B" d="M852.6,103.4l-1.9,0.2l1.2,1.6l2.4,1.6l0.7-0.8L852.6,103.4L852.6,103.4z" /> 
<path id="medny" fill="#39393B" d="M856.3,104.6l0.3,1.6l3,0.9l0.3-1.2L856.3,104.6L856.3,104.6z" /> 
<path id="attu" fill="#39393B" d="M872.5,110.9l1.3,2.2l2.1-0.1l0.4-1.5L872.5,110.9L872.5,110.9z" /> 
<path id="amchitka" fill="#39393B" d="M893.5,114.4l1.7,3.1l1.3-1.4V114L893.5,114.4L893.5,114.4z" /> 
<path id="adak" fill="#39393B" d="M907.8,104.6l-2.4,3.1l0.5,1.4l2.9-1.8l0.3-1.8L907.8,104.6L907.8,104.6z" /> 
<path id="umnak" fill="#39393B" d="M919.6,94.9l-2.1,2.5l2.2,0.8L919.6,94.9L919.6,94.9z" /> 
<path id="unalaska" fill="#39393B" d="M922.5,90.7l-1.4,2.2l0.1,2.2l1.9-0.8L922.5,90.7L922.5,90.7z" /> 
<path id="st._lawrence_island" fill="#39393B" d="M881.3,38.4l-2.4,1.5l-0.6,2l1.1,1.3l2.5-0.8l2.5,0.8l1.4,0.4l-0.1-4.6L881.3,38.4 L881.3,38.4z" /> 
<path id="st._lawrence_island_west" fill="#39393B" d="M69.2,53.3l3.5,6.5l2.2-0.5v-2.2L69.2,53.3L69.2,53.3z" /> 
<path id="alaska" fill="#39393B" d="M883.4,17.5l-4.2,7.6l8.1,5.1l9-7.6l5.5,9.2l-5.7,1.2l-2.3,5.9l12.7,17.2l7.7,1.3l11,2.2l1.4-4 l3.8,1.5l0.7,16.8L924,85.6l3.4,0.8l9-18.9l2.7-14.2l-5.5-2.6l-0.9-19l4.3,0.8l0,11.4l4.7,4.1l2.7-9.9l-2.2-5.9l6.6,3.2l0.7-35 l-75.8,0.1l-4.4,3.3l0.6,6.8l13.4,1.8l10.3-2.3l-3.7,6.9L883.4,17.5L883.4,17.5z" /> 
<path id="chukotka" fill="#39393B" d="M1.2,55l14,1.6l2.3,4.8l11.2-6.5l18.7-2.6l1.3-9.7l9.3-3.4l6.1-5.8v7.8l6.2,8.5l13-8.2 l-6.2-7.1l-7.8-21L59.9,2.7l-6.6-0.5l-0.3,5.8l-5.5,2.7l-1.7-3.4l3.2-6.9L1.3,0.4L1.2,55L1.2,55z" /> 
<path id="wrangel-w" fill="#39393B" d="M78.5,3.3l-3.9,3.5l1.2,2.6L77.8,8L79,9.3l3.9-1.4l-0.1-2.2L78.5,3.3L78.5,3.3z" /> 
<path id="unalaska_west" fill="#39393B" d="M49.7,110.3l-0.2,3l2.2-0.5v-1.3L49.7,110.3L49.7,110.3z" /> 
<path id="umnak_west" fill="#39393B" d="M46.3,111.6l-4.3,2.2l0.7,2.3l1.7-1.3l3.3-1.5L46.3,111.6L46.3,111.6z" /> 
<path id="another_aleutian_west" fill="#39393B" d="M28.4,114.4l-3-0.7l-0.5,1.3l0.3,2.5L28.4,114.4L28.4,114.4z" /> 
<path id="adak_west" fill="#39393B" d="M22.1,114.3l-2.8-1.2l-1,1.8l1.8,1.8L22.1,114.3L22.1,114.3z" /> 
<path id="amchitka_west" fill="#39393B" d="M12.3,111.6l-1.3-1.8l-1.3,0.5v2.5l1.5,1L12.3,111.6L12.3,111.6z" /> 
<path id="attu_west" fill="#39393B" d="M1.5,99.7l1.7,1.2l-0.5,1.3H1.5V99.7L1.5,99.7z" /> 
<path id="kerguelen" fill="#39393B" d="M622.8,499.6l-0.2,4.3l5.9,1.4l1.4-3.5l-2.1,0.6L625,503l-0.8-3.2L622.8,499.6L622.8,499.6z" /> 
<path id="mauritius" fill="#39393B" d="M613,399l-1.5,2l0.3,2.1l3.2-2.6L613,399L613,399z" /> 
<path id="reunion" fill="#39393B" d="M607.4,402.4l-2.3,0.1l-0.2,2l1.5,0.3l2.3-1.1L607.4,402.4L607.4,402.4z" /> 
<path id="madagascar" fill="#39393B" d="M592.3,372.9l-2.1,5.1l-3.7,6.4l-6.4,0.5l-2.7,3.2l0.5,9.8l-4,4.6l0.5,7.8l3.3,3.8l4-0.5 l4-2.9l-0.9-4.6l9.1-15.8l-1.8-2l1.8-3.8l2,0.6l0.6-1.5l-1.8-7.8l-1.1-3.2L592.3,372.9L592.3,372.9z" /> 
<path id="grande_comore" fill="#39393B" d="M577.7,371.2l0.5,1.5l2,0.3l0.8-2L577.7,371.2L577.7,371.2z" /> 
<path id="mayotte" fill="#39393B" d="M580.6,374.3l0.8,1.7h1.2l0.6-2.1L580.6,374.3L580.6,374.3z" /> 
<path id="aldabra" fill="#39393B" d="M602.3,358.3l-0.6,1.2l1.7,1.4l1.2-1.4L602.3,358.3L602.3,358.3z" /> 
<path id="praslin" fill="#39393B" d="M610.9,349.1l-1.8,1.2l1.4,2.1h1.8L610.9,349.1L610.9,349.1z" /> 
<path id="mahe" fill="#39393B" d="M611.6,354.5l-1.2,1.4l0.9,1.4l1.7,0.3l0.2-2.9L611.6,354.5L611.6,354.5z" /> 
<path id="male" fill="#39393B" d="M656.4,320.8l0.3,2.6l1.7,0.6l0.3-2.3L656.4,320.8L656.4,320.8z" /> 
<path id="maldive" fill="#39393B" d="M658.5,326.3l-0.2,3.2l1.2,0.6l1.1-2.1L658.5,326.3L658.5,326.3z" /> 
<path id="gan" fill="#39393B" d="M658.8,332.6l-1.1,1.1l1.2,1.1l1.5-1.1L658.8,332.6L658.8,332.6z" /> 
<path id="path151" fill="#39393B" d="M372.6,217l-1.4,1.4l2.4,1.4l0.3-1.9L372.6,217L372.6,217z" /> 
<path id="terceira" fill="#39393B" d="M380,216.2l-1.6,1.1l1.4,1.1l2.2-0.6L380,216.2L380,216.2z" /> 
<path id="pico" fill="#39393B" d="M381,220l-0.8,2.2l1.1,1.4l1.4-1.1L381,220L381,220z" /> 
<path id="sao_miguel" fill="#39393B" d="M387.6,224.4l-0.5,1.4l0.8,0.8l2.2-1.4L387.6,224.4L387.6,224.4z" /> 
<path id="madeira" fill="#39393B" d="M408.2,236.4l-1.1,1.4l1.1,1.4l1.6-0.8L408.2,236.4L408.2,236.4z" /> 
<path id="lanzarote" fill="#39393B" d="M415.6,253.7l-1.8,1l0.8,0.8L415.6,253.7L415.6,253.7z" /> 
<path id="gran_canaria" fill="#39393B" d="M409.5,253.9l-2.2,0.6l1.1,1.6h1.6L409.5,253.9L409.5,253.9z" /> 
<path id="tenerife" fill="#39393B" d="M404.4,252.3l-1.4,1.4l1.9,1.6l1.1-2.5L404.4,252.3L404.4,252.3z" /> 
<path id="santo_antao" fill="#39393B" d="M387.6,290.5l-1.9,1.1l1.4,1.1l1.6-0.8L387.6,290.5L387.6,290.5z" /> 
<path id="boa_vista" fill="#39393B" d="M392.2,292.7l-1.2,1.1l0.9,1.6l2.1-1L392.2,292.7L392.2,292.7z" /> 
<path id="santiago" fill="#39393B" d="M389.5,295.8l-1.6,1l1.7,2.3l1.4-0.7L389.5,295.8L389.5,295.8z" /> 
<path id="kauai" fill="#39393B" d="M10,248.7L9.9,251l2,1.4l1.2-1.1L10,248.7L10,248.7z" /> 
<path id="oahu" fill="#39393B" d="M15.3,252.1l-1.9,1.4l1.6,2.1l1.9-1.6L15.3,252.1L15.3,252.1z" /> 
<path id="kahului" fill="#39393B" d="M19.1,255.4l-1.6,2.2L18,259l2.3-1.1L19.1,255.4L19.1,255.4z" /> 
<path id="hawaii" fill="#39393B" d="M21.8,259.6l-1,5.5l1,2l3.1-1l1.6-2.7l-3.4-3.1L21.8,259.6L21.8,259.6z" /> 
<path id="raiatea" fill="#39393B" d="M27.3,402.7l-1.9-0.1l-0.1,1.8l1.5,1l1.8-1.1L27.3,402.7L27.3,402.7z" /> 
<path id="tahiti" fill="#39393B" d="M33.8,404.6l-2.7,1.8l2,2.5l1.8-0.4l1-1.2L33.8,404.6L33.8,404.6z" /> 
<path id="guadeloupe" fill="#39393B" d="M276.6,283.4l-1.5,0.6l0.5,1.3l1.8-1.1l-0.4-0.4L276.6,283.4L276.6,283.4z" /> 
<path id="dominica" fill="#39393B" d="M279.1,284.9l-0.9,1.9l1.1,1.4l1.3-1.1L279.1,284.9L279.1,284.9z" /> 
<path id="martinique" fill="#39393B" d="M282.1,290l-1.1,1l0.8,1.6l1.5-0.4L282.1,290L282.1,290z" /> 
<path id="st._lucia" fill="#39393B" d="M282,294l-0.7,1.5l1.1,1.2l1.5-0.8L282,294L282,294z" /> 
<path id="st._vincent" fill="#39393B" d="M282.1,297.9l-1.2,0.9l1,1.8l1.6-0.9L282.1,297.9L282.1,297.9z" /> 
<path id="grenada" fill="#39393B" d="M280.6,301.3l-1.1,1.1l0.4,0.7h1.4l0.4-1.2L280.6,301.3L280.6,301.3z" /> 
<path id="trinidad" fill="#39393B" d="M282.2,304.8l-1.1,1l-1.1,0.2v1.4l2.1,2l0.9-1.4l0.5-1.6l-0.2-1.3L282.2,304.8L282.2,304.8z" /> 
<path id="puerto_rico" fill="#39393B" d="M271,281.1l-2.6-0.9l-2.1,1.3l1.1,1.2l3.6,0.5L271,281.1L271,281.1z" /> 
<path id="haiti-dominican_border" fill="#39393B" d="M250.9,275.4l-1.7,1.7l1.9,0.8l0.3,2.4l-4.2,0.4l0.4,2.3l1.2,0.1l0.7-1.1 l4.9,0.2l0.9,1.7l1.1-1.3l3.3-0.9l2.9,0.6l0.3-1.8l-5.3-3.5l-3.4-1.3L250.9,275.4L250.9,275.4z" /> 
<path id="domincan_republic" fill="#39393B" d="M263.1,280.4l-5.3-3.5l-2.5-0.9l-0.8,6l0.9,1.7l1.1-1.3l3.4-0.9l2.9,0.6L263.1,280.4 L263.1,280.4z" /> 
<path id="haiti" fill="#39393B" d="M250.9,275.4l3.4,0.4l-0.4,4.2l-0.3,2.2l-4-0.2l-0.7,1.1l-1.2-0.1l-0.4-2.3l4.2-0.4l-0.3-2.4 l-1.9-0.8L250.9,275.4L250.9,275.4z" /> 
<path id="falklands_west" fill="#39393B" d="M308,508.2l-2.6-0.3l-2.6,1.8l1.9,2.1L308,508.2L308,508.2z" /> 
<path id="falklands_east" fill="#39393B" d="M310.6,506.9l-0.9,2.8l-2.5,2.2l0.1,0.7l4.2-1.6l1.8-2.2L310.6,506.9L310.6,506.9z" /> 
<path id="iceland" fill="#39393B" d="M406.4,117.3l-2-1.1l-2.6,1.7l-2.3,2.1l0.1,1.2l2.9,0.4l-0.2,2.1l-1,1.1l0.3,0.7l2.9,0.2v3.4 l4.2,0.7l2.5,1.4l2.8,0.1l4.8-2.4l3.7-4.9l0.1-3.3l-2.3-1.9l-1.9-1.6l-0.9,0.6l-1.3,1.7l-1.5-0.2l-1.5-1.6l-1.9,0.2l-2.8,2.3 l-1.7,1.8l-0.9-0.8l-0.1-2l0.9-0.6L406.4,117.3L406.4,117.3z" /> 
<path id="spitsbergen" fill="#39393B" d="M488.3,54l-1.6-1.7l-3.7,1.8h-6.7l-1.1,3.9l3.8,3.3l1.6-0.2l2.4-4l2,1.4l-1.4,2.8l-0.7,4.2 l1.6,2.6l3.5-5.9l4.6-5.6l-1.8-1.5L488.3,54L488.3,54z" /> 
<path id="nordaustlandet" fill="#39393B" d="M490.3,46.8l-3,2.7l1.8,2.7h3.2l1.3,1.8l3.9,2l4.5-2.6l3.1-2.6l-1.1-2.1l-3.1-1.8 l-2.2,2l-1.5-1.9l-1.2,0.1l-1.5,3.3l-2.2-2.3l-0.2-1.5L490.3,46.8L490.3,46.8z" /> 
<path id="edgeoya" fill="#39393B" d="M497,59.1l-2.4,2.1l-2,1.5l0.9,1.7l1.9,0.6l3.1-1.4l1.4-1.8l-1.3-2.1L497,59.1L497,59.1z" /> 
<path id="prince_george" fill="#39393B" d="M547.8,38.8l1.7,0.7l-1.2,2.1v3l-2.6,1.6H543l-1.5-1.9l0.2-2.1l1.2-1.6h2.4L547.8,38.8 L547.8,38.8z" /> 
<path id="salisbury" fill="#39393B" d="M554.4,36.9V39l1.7,1.4l2.4-0.2l2.1-1.9v-1.4h-1.9l-1.5,0.5l-1.2-1.4L554.4,36.9L554.4,36.9z " /> 
<path id="wilczek" fill="#39393B" d="M564.2,37.1l1.2,2.6l2.4,0.2l1.7-0.7l-0.9-2.4l-2.2-0.5L564.2,37.1L564.2,37.1z" /> 
<path id="bell" fill="#39393B" d="M574,33.6l-1.9-0.3l-1.7,1.7l0.9,1.6l0.5,2.4l2.2-1.7l0.5-1.9L574,33.6L574,33.6z" /> 
<path id="novaya_zemlya_north" fill="#39393B" d="M584.5,52l-0.5,2.4l-4,3.5l-8.4,1.9l-6.9,11.4l-1.2,3.3l6.9,1.7l1-4.2l2.1-6.4 l5.3-2.8l4.5-3.5l3.3-1.4h1.7v-4.7L584.5,52L584.5,52z" /> 
<path id="novaya_zemlya_south" fill="#39393B" d="M562.3,77.3l4.7,0.5l1.5,5.4l4,4.2l-1.4,2.8h-2.4l-2.2-2.6l-5-0.2l-2.1-2.8v-1.9 l3.1-0.9L562.3,77.3L562.3,77.3z" /> 
<path id="komsomolets" fill="#39393B" d="M635,18.1l-2.2-1.4h-2.6l-0.5,1.6l-2.8,1.6l-2.1,0.7l-0.3,2.1l4.8,0.4L635,18.1L635,18.1z" /> 
<path id="october" fill="#39393B" d="M640.3,18.7l-1.2,2.6l-2.4-0.2l-3.8,2.8l-1,3.5h2.4l1.4-2.3l3.3,2.4l3.1-1.4l2.2-1.9l-0.9-3 l-1.2-2.1L640.3,18.7L640.3,18.7z" /> 
<path id="bolshevik" fill="#39393B" d="M645.3,20.6l1.2,4.9l1.9,4.5l2.1-3.6l4-0.9v-2.6l-2.6-1.9L645.3,20.6L645.3,20.6z" /> 
<path id="kotelny" fill="#39393B" d="M739.8,12.8l2.7,2.3l1.9-0.8l0.6-3.2L741,8.4l-2.6,1.7l-6.3,0.6v2.8l-6.6,0.1v4.6l7.7,5.8 l2-1.5l-0.5-4.1l4.9-1.2l-1-1.9l-1.8-1.8L739.8,12.8L739.8,12.8z" /> 
<path id="novaya_sibir" fill="#39393B" d="M746.9,10.1l1.8,3.4l7-0.8l1.9-2.5l-0.5-2.1l-1.9-0.8l-1.8,1.4l-5.2,1.1L746.9,10.1 L746.9,10.1z" /> 
<path id="lyakhovsky" fill="#39393B" d="M746.5,23.3l-3.5-0.9l-2,2.1l-0.9,2.9l4.7-0.5l3.6-1.8L746.5,23.3L746.5,23.3z" /> 
<path id="wrangel" fill="#39393B" d="M836.7,3.8l-2.9-0.9l-3.4,1.2l-1.7,2.5l2.1,2.8l5.6-2.5l1.1-1.2L836.7,3.8L836.7,3.8z" /> 
<path id="sri_lanka" fill="#39393B" d="M680.5,308l0.3,2.7l0.3,2l-1.5,0.3l0.7,4.5l2.2,1.2l3.4-2l-1-4.7l0.3-1.7l-3.2-3L680.5,308 L680.5,308z" /> 
<path id="cuba" fill="#39393B" d="M220.9,266.9v1.3l5.3,0.1l2.5-1.5l0.4,1.1l5.2,1.3l4.6,4.2l-1.1,1.5l0.2,1.7l3.9,1l3.9-1.8 l1.7-1.8l-2.5-1.3l-12.9-7.6l-4.5-0.5L220.9,266.9L220.9,266.9z" /> 
<path id="bimini" fill="#39393B" d="M239.6,259.1l-1.3-0.4l-0.1,2.4l1.6,1.6l1.1-1.6L239.6,259.1L239.6,259.1z" /> 
<path id="andros" fill="#39393B" d="M242.1,262.9l-1.7,1l1.6,2.3l0.9-1.2L242.1,262.9L242.1,262.9z" /> 
<path id="inagua" fill="#39393B" d="M247.7,264.7l-1.8-0.1l0.2,1.2l1.4,2l1.2-1.3L247.7,264.7L247.7,264.7z" /> 
<path id="eleuthera" fill="#39393B" d="M246.9,262.4l-3-1.3l-0.6-3l1.2-0.5l1.2,2.3l1.2,0.9L246.9,262.4L246.9,262.4z" /> 
<path id="grand_bahama" fill="#39393B" d="M244,256.2l-1.6-0.4l-0.3-1.9l-1.6-0.6l1.1-1.1l1.9,0.7l1.4,0.9L244,256.2L244,256.2z" /> 
<path id="jamaica" fill="#39393B" d="M238.9,279.6l-3.5,0.9v1l2,1.2h2.1l1.4-1.6L238.9,279.6L238.9,279.6z" /> 
<path id="irian_jaya" fill="#39393B" d="M831.9,339.3l-4.2,0.5l-2.7,2l1.1,2.2l4.5,0.8v0.8l-2.9,2.3l1.4,4.9l1.4,0.1l1.2-4.8h2.2 l0.9,4.7l10.8,9l0.3,7l3.7,4l1.7-0.1l0.4-24.7l-6.3-4.4l-5.9,4l-2.1,1.3l-3.5-2.2l-0.1-7.1L831.9,339.3L831.9,339.3z" /> 
<path id="alaska-westcopy" fill="#39393B" d="M93.1,44.9l-8.4,2l1.7,9.5l9.1,2.5l0.5,2L82.5,65l-7.7,12.7l2.7,13.4l4.4,3l3.5-3.2 l1,2l-4.2,5L66,105.3l-10.4,2.5l-0.3,3.7l23.9-7l9.9-2.7l9.1-11.2l10.1-6.7l-5.2,8.7l5.7,0.8l9.6-4.2l1.7,7l6.7,1.5l6.9,6.7l0.5,5 l-1,1.2l1.2,4.7h1.7l0.3-8h2l0.5,19.6l4.9-4.2l-3.5-20.4h-5.2l-5.7-7.2l27.9-47.3l-27.6-21.6l-30.8,6l-1.2,9.5l6.7,4l-2.5,6.5 L93.1,44.9L93.1,44.9z" /> 
<path id="galapagos" fill="#39393B" d="M195,338.2l-0.6,2.8l-1.1,1.2l0.8,1.4l2-0.8l1-1.7l-0.6-1.8L195,338.2L195,338.2z" /> 
<path id="banks" fill="#39393B" d="M203.7,35.9l0.2,4l-8,8.3l2,6.7l5.8-1.6l3.3-4.9l8.4-3.1l6.9-0.5L217,39l-2.7,2l-2-0.7l-1.1-2.5 l-2.4-2.5L203.7,35.9L203.7,35.9z" /> 
<path id="prince_patrick" fill="#39393B" d="M214.1,24l-1.8,3.1l8.6,3.1l3.1-4.7l1.3,3.1h2.2l4.2-4.7l-5.1-1.3l-2-1.6l-2.7,2.7 L214.1,24L214.1,24z" /> 
<path id="eglinton" fill="#39393B" d="M229.2,30.3l-6.9,2.9v2.2l8.9,3.3l-2,2.2l1.3,2.9l5.5-2.5h4.7L243,45l3.8-3.8l-0.9-3.6 l-3.1,1.1l-0.4-4.5l1.6-2.7h-1.6l-2.4,1.6l-1.1,0.9l0.7,3.1l-1.8,1.3l-2.7-0.2l-0.7-4L229.2,30.3L229.2,30.3z" /> 
<path id="mackenzie_king" fill="#39393B" d="M238.3,23.4l-0.7,2.2l4.2,2l3.1-1.8l-0.2-1.3L238.3,23.4L238.3,23.4z" /> 
<path id="king_christian" fill="#39393B" d="M241.6,19.6l-3.1,1.1l0.2,1.6l6.9-0.5l-0.2-1.6L241.6,19.6L241.6,19.6z" /> 
<path id="ellef_ringnes" fill="#39393B" d="M256.5,23.4l-0.4,1.6l-1.1,1.6v2.2l4.2-0.7l4.4,3.8h1.5v-3.8l-4.4-4.9L256.5,23.4 L256.5,23.4z" /> 
<path id="amund_ringnes" fill="#39393B" d="M267.8,27.9l1.8,2l-1.5,2.7l1.1,2.9l4.9-2.7v-2l-2.9-3.4L267.8,27.9L267.8,27.9z" /> 
<path id="axel_heiberg" fill="#39393B" d="M274.2,22.7l0.2,3.6h6l1.5,1.3l-0.2,1.6l-5.3,0.7l3.8,5.1l5.1,0.9l7.1-3.1l-10.2-15.4 l-3.1,2l0.2,2.7l-3.5-1.3L274.2,22.7L274.2,22.7z" /> 
<path id="victoria" fill="#39393B" d="M222.6,48l-8.4,2.2l-4.9,4.3l0.4,4.7l8.9,2.7l-2,4.5l-6.4-4l-1.8,3.4l4.2,2.9l-0.2,4.7 l6.4,1.8l7.8-0.4l1.3-2.5l5.8,6.5l4-1.3l0.7-4.5l2.9,2l0.4-4.5l-3.6-2.2l0.2-14.1l-3.1-2.5l-3.3,4.5L222.6,48L222.6,48z" /> 
<path id="prince_of_wales" fill="#39393B" d="M249.6,57.8l-2.9-1.3l-1.6,2l3.1,4.9l0.2,4.7l6.6-4v-5.8l2.4-2.5l-2.4-1.8h-4 L249.6,57.8L249.6,57.8z" /> 
<path id="prescott" fill="#39393B" d="M263.8,55.8l-4.7,3.8l1.1,4.7h2.9l1.3-2.5l2,2l2-0.2l5.3-4.5L263.8,55.8L263.8,55.8z" /> 
<path id="cornwallis" fill="#39393B" d="M263.4,48.4l-1.1,2.2l4.9,1.8l1.3-2L263.4,48.4L263.4,48.4z" /> 
<path id="bathurst" fill="#39393B" d="M260.5,39.9l-4.9,0.7l-2.9,2.7l5.3,0.2l-1.5,4l1.1,1.8l1.5-0.2l3.8-6L260.5,39.9L260.5,39.9z" /> 
<path id="devon" fill="#39393B" d="M268.9,38.3l-2.7,0.9l0.4,3.6l4.4,2.9l0.2,2.2l-1.3,1.3l0.7,4.5l17.1,5.6l4.7,1.6l4.7-4l-5.5-4.5 l-5.1,1.3l-7.1-0.7l-2.7-2.7L276,43l-4.4-2.2L268.9,38.3L268.9,38.3z" /> 
<path id="baffin" fill="#39393B" d="M282.9,61.6l-4.9-0.5l-5.8,2.2l-3.1,4.2l0.9,11.6l9.5,0.4l9.1,4.5l6.4,7.4l4.9-0.2l-1.3,6.9 l-4.4,7.4l-4.9,2.2l-3.5-0.7l-1.8-1.6l-2.7,3.6l1.1,3.6l3.8,0.2l4.7-2.2l4,10.3l10,6.5l6.9-8.7l-5.8-9.4l3.3-3.8l4.7,7.8l8.4-7.4 l-1.5-3.3l-5.8,1.8l-4-10.9l3.8-6.3l-7.5-8l-4.2,2.9l-4-8.7l-8.4,1.1l-2.2-10.5l-6.9,4.7l-0.7,5.8h-3.8l0.4-5.1L282.9,61.6 L282.9,61.6z" /> 
<path id="bylot" fill="#39393B" d="M292.9,65.6l-1.8,1.8l1.5,2.5l7.3,0.9l-4.7-4.9L292.9,65.6L292.9,65.6z" /> 
<path id="ellesmere" fill="#39393B" d="M285.8,40.4v2l-4.9,1.1l1.3,2.2l5.5,2.2l6.2,0.7l4.4,3.1l4.4-2.5l-3.1-3.1h4l2.4-2.7l6-0.9 v-1.3l-3.3-2.2l0.4-2.5l9.3,1.6l13.8-5.4l-5.1-1.6l1.3-1.8h10.6l1.8-1.8L319.4,20l-5.1-1.8l-5.5,4l-6.2-5.1l-3.3-0.2l-0.7,4.3 l-4.2-3.8l-4.9,1.6l0.9,2.5l7.3,1.6l-0.4,3.6l4,2.5l9.8-2.5l0.2,3.4l-8,3.8l-4.9-3.8l-4.4,0.5l4.4,6.3l-2.2,1.1l-3.3-2.9l-2.4,1.6 l2.2,4.2h3.8l-0.9,4l-3.1-0.5l-4-4.3L285.8,40.4L285.8,40.4z" /> 
<path id="southhampton" fill="#39393B" d="M266,101.8l-4.2,5.3l-0.3,5.9l3.7-2.1h4.5l3.2,2.9l2.9-2.4L266,101.8L266,101.8z" /> 
<path id="newfoundland" fill="#39393B" d="M317.5,171.1l-10.6,10.1l1.1,2.4l12.9,4.8l1.9-3.2l-1.1-5.3l-4.2,0.5l-2.4-2.7l4-4 L317.5,171.1L317.5,171.1z" /> 
<path id="canada" fill="#39393B" d="M158.2,48.7l2,3l1,4l5,1.3l3.5-3.8l3,1.5l8.5,0.8l6-2.5l1,8.3h3.5v-3.5l3.5,0.3l8.7,10.3 l5.7,3.5l-3,4.8l1.3,1.3L219,80l0.3,5l3,0.5L223,78l4.7-1.3l3.5,5.3l7.5,3.5l3.7,0.8l2.5-3l0.3-4.8l4.5-2.8l1.5,4l-4,7l0.5,3.5 l2.2-3.5l4.5-4l0.3-5.3l-2.5-4l0.8-3.3l6-3l2.7,2l0.5,17.6l4.2-3.8l2.5,1.5l-3.5,6l4.5,1l6.5-10l5.5,5.8l-2.2,10.3l-5.5,3l-5.2-2.5 l-9.5,2l1,3.3l-2.5,4l-7.7,1.8l-8.7,6.8l-7.7,10.3l-1,3.3l5.2,2l2,5l7.2,7.3l11.5,5l-2.5,11.5l-0.3,3.3l3,2l4-5.3l0.5-10l6.2-0.3 l3-5.8l0.5-8.8l8-15.6l10,3.5l5.2,7.3L294,138l4,2.3l9.7-6.5l2.7,17.8l9,10.8l0.3,5.5l-10,2.5l-4.7,5l-10-2.3l-5-0.3l-8.7,6.8 l5.2-1.3l6.5-1.3l1.3,1.5l-1.7,5.5l0.3,5l3,2l3-0.8l1.5-2.3h2l-3.2,6l-6.2,0.3l-2.7,4h-3.5l-1-3l5-5l-6,2l-0.3-8.5l-1.7-1l-5.2,2.3 l-0.5,4.3h-12l-10.2,7l-13.7,4.5l-1.5-2l6.9-10.3l-3.9-3.8l-2.5-4.8l-5.1-3.9l-5.4-0.4l-9.8-6.8L149,157.4l-1.2-4.8l-6.5-6v-5l1-4.5 l-0.5-2.5l-2.5-2.5l-0.5-4l6.5-4.5l-4-21.6l-5.5-0.3l-5-6.5L158.2,48.7L158.2,48.7z" /> 
<path id="usa" fill="#39393B" d="M148.8,158.3l-1,4l-3.5-2.3h-1.7l-1,4.3l-12.2,27.4l3.2,23.8l4,2l0.8,6.5h8.2l8,6l15.7,1.5l1.7,8 l2.5,1.8l3.5-3.5l2.7,1.3l2.5,11.5l4.2,2.8l3.5-6.5l10.7-7.8l7,3.3l6,0.5l0.3-3.8l12.4,0.3l2.5,2.8l0.5,6.3l-1.5,3.5l1.7,6h3.7 l3.7-5.8l-1.5-2.8l-1.5-6l2.2-6.8l10.2-8.8l7.7-2.3l-1-7.3l10.7-11.6l10.7-1.8l-1.7-6l10.5-6v-8l-1-0.5l-3.7,1.3l-0.5,4.9l-12.4,0.1 l-9.7,6.5l-15.3,5l-2.4-3l6.9-10.5l-3.4-3.3l-2.3-4.4l-4.8-3.9l-5.3-0.4l-9.9-6.8L148.8,158.3L148.8,158.3z" /> 
<path id="haida_gwaii" fill="#39393B" d="M133.8,128.4l-1.7,3.3l0.6,2.3l1.1,0.7l-0.3,0.9l-1.2,0.3l0.3,3.4l1.3,1.3l1-1.1l-1.3-3.3 l0.8-2.7l1.9-2.5l-1.4-2.3L133.8,128.4L133.8,128.4z" /> 
<path id="vancouver" fill="#39393B" d="M139.4,147.9l-1.5,0.6l2.8,3.3l0.7,3.9l2.8,3l2.4-0.4v-3.9l-2.9-1.8L139.4,147.9L139.4,147.9 z" /> 
<path id="guatemala" fill="#39393B" d="M194.9,291.5l5.9,4.3l6-7.4l-1-1.5l-2-0.1v-4.4l-1.5-0.9l-4.6,1.4l1.8,4.1L194.9,291.5 L194.9,291.5z" /> 
<path id="honduras" fill="#39393B" d="M207.6,288.8l9.2-0.4l2.7,3.3l-1.7-0.4l-3.3,0.1l-4.3,4l-1.8,4.1l-1.2-0.6l0-4.5l-2.7-1.8 L207.6,288.8L207.6,288.8z" /> 
<path id="el_salvador" fill="#39393B" d="M201.6,296.3l4.7,2.3l-0.1-3.7l-2.4-1.5L201.6,296.3L201.6,296.3z" /> 
<path id="nicaragua" fill="#39393B" d="M217.7,292.1l2.2,0.4l0.1,4.5l-2.6,7.3l-6.9-0.7l-1.5-3.5l2-4.3l3.9-3.6L217.7,292.1 L217.7,292.1z" /> 
<path id="costa_rica" fill="#39393B" d="M217.4,305l1.4,2.7l1.1,1.5l-1.5,4.5l-2.9-2l-4.7-4.3v-2.9L217.4,305L217.4,305z" /> 
<path id="panama" fill="#39393B" d="M220.6,309.6l-1.5,4.6l4.8,1.3l3,0.6l0.5-3.5l3.2-1.6l2.9,1.5l1.1,1.8l1.4-0.2l1.1-3.3l-3.6-1.5 l-2.7-1.5l-2.7,1.8l-3.2,1.6l-3.3-1.3L220.6,309.6L220.6,309.6z" /> 
<path id="colombia" fill="#39393B" d="M253.7,299.8l-2.1-0.2l-13.6,11.2l-1.4,4l-1.9,0.2l0.8,8.7l-4.8,11.6l5.2,4.4l6.6,0.4l4.5,6.7 l6.6,0.2l-0.2,5h2.5l2.7-9.1l-2.5-3.1l0.6-5.8l5.2-0.4l-0.6-13.5l-11.6-3.7l-2.7-7.3L253.7,299.8L253.7,299.8z" /> 
<path id="venezuela" fill="#39393B" d="M250.5,305.9l0.4,2.6l3.3,1l0.7-4.8l3.4-3.5l3.4,4l7.9,2.1l6.7-1.4l4.5,5.6l3.4,2.1l-3.8,5.7 l1.3,4.3l-2.1,2.7l-2.2,1.9l-4.8-2.4l-1.1,1.1v3.5l3.5,1.7l-2.6,2.8l-2.6,2.8l-3.4-0.3l-3.5-3.8l-0.7-14.3l-11.8-4l-2.1-6.3 L250.5,305.9L250.5,305.9z" /> 
<path id="guyana" fill="#39393B" d="M285,314.1l7.2,6.5l-2.9,3.3l-0.2,2l3.8,3.9l-0.1,3.7l-6.6,2.5l-3.9-5.3l0.8-6.4l-1.7-4.8 L285,314.1L285,314.1z" /> 
<path id="suriname" fill="#39393B" d="M293.1,321.1l2,1.9l3.2-2l2.9,0.1l-0.4,1.1l-1.2,2.5l-0.2,6.3l-5.8,2.3l0.3-4l-3.7-3.5 l0.2-1.8L293.1,321.1L293.1,321.1z" /> 
<path id="guyane" fill="#39393B" d="M302.1,321.8l5.9,3.6l-3.1,6.1l-1.1,1.4l-3.3-1.9l0.1-6.5L302.1,321.8L302.1,321.8z" /> 
<path id="ecuador" fill="#39393B" d="M230.2,335.9l-4.7,2.9l-0.3,4.4l-0.9,1.4l3,2.9l-1.3,1.4l0.3,3.6l5.3,1.3l8.1-9.5l0-3.3 l-3.9-0.3L230.2,335.9L230.2,335.9z" /> 
<path id="peru" fill="#39393B" d="M225,349.5l-1.9,2l0.1,3.1l16.9,30.9l17.6,11.3l2.7-4.6l0.6-10l-1.4-6.3l-4.8-8.1l-2.9,0.9 l-1.3,1.4l-5.7-6.5l1.4-7.7l6.6-4.3l-0.5-4l-6.7-0.3l-3.5-5.9l-1.9-0.6l0.1,3.5l-8.7,10.3l-6.5-1.6L225,349.5L225,349.5z" /> 
<path id="bolivia" fill="#39393B" d="M258.7,372.8l8.2-3.6l2.7,0.3l1.8,7.6l12.5,4.2l2.1,6.4l5.2,0.6l2.2,5.5l-1.5,5l-8.4,0.6 l-3.1,8l-6.6-0.1l-2.1-0.4l-3.8,3.7l-1.9-0.2l-6.5-15l1.8-2.7L262,382l-1.6-6.3L258.7,372.8L258.7,372.8z" /> 
<path id="paraguay" fill="#39393B" d="M291.8,399.5l2.2,2.4l-0.3,5.1l6.3-0.4l4.8,6.1l-0.4,5.5l-3.1,4.7l-6.3,0.3l-0.3-2.6l1.8-4.3 l-6.2-3.9h-5.2l-3.9-4.2l2.8-8.1L291.8,399.5L291.8,399.5z" /> 
<path id="uruguay" fill="#39393B" d="M300.4,431.9l-2,2.2l0.9,11.8l6.4,1.9l8.2-8.2L300.4,431.9L300.4,431.9z" /> 
<path id="argentina" fill="#39393B" d="M305.5,418.2l1.9,1.8l-7.4,11l-2.6,2.9l0.9,12.5l5.7,6.9l-4.8,8.3l-3.6,1.6h-4.1l1.2,6.5 l-6.5,2.2l1.5,5.5l-3.9,12.4l4.8,3.9l-2.6,6.4l-4.4,6.9l2.3,4.8l-5.7,0.9l-4.7-5.7l-0.8-17.9l-7.2-30.3l2.2-10.6l-4.7-13.5l3.1-17.6 l2.9-3.4l-0.7-2.6l3.7-3.3l8.2,0.6l4.6,4.9l5.3,0.1l5.4,3.3l-1.6,3.7l0.4,3.8l7.6-0.4L305.5,418.2L305.5,418.2z" /> 
<path id="tierra_del_fuego_chile" fill="#39393B" d="M285,514.1l-4.3,9.4l7.4,0.8l0.1-6.3L285,514.1L285,514.1z" /> 
<path id="tierra_del_fuego_argentina" fill="#39393B" d="M288.9,518.8l0.3,5.7l4.4-0.4l3.8-2.5l-6.3-1.3L288.9,518.8L288.9,518.8z" /> 
<path id="chile" fill="#39393B" d="M283.6,512.6l-3.2,3.5l-0.4,4.2l-6.2-3.5l-6.6-9.5l-1.9-3.4l2.7-3.5l-0.3-4.4l-3.1-1.3l-2.5-1.8 l0.5-2.5l3.2-0.9l0.6-14.3l-5-2.9l-3.3-74.6l0.9-1.5l6.4,14.9l2.1,0l0.7,2.4l-2.7,3.3l-3.1,17.9l4.5,13.8l-2.1,10.4l7.3,30.6 l0.8,17.9l5.2,6.1L283.6,512.6L283.6,512.6z" /> 
<path id="chiloe" fill="#39393B" d="M262.3,475.1l-1.3,2l0.6,3.4l1.3,0.1l0.6-4.3L262.3,475.1L262.3,475.1z" /> 
<path id="brazil" fill="#39393B" d="M314.2,438.9l6.3-12l0.2-10.1l11.7-7.5h6.5l5.1-8.7l0.9-16.7l-2.1-4.5l12.4-11.3l0.5-12.5 l-16.8-8.2l-20.3-6.3l-9.6-0.9l2.6-5.4l-0.7-8.2l-2.1-0.7l-3.1,6.1l-1.6,2l-4.2-1.8l-14,4.9l-4.7-5.9l0.8-6.1l-4.4,4.5l-4.9-2.6 l-0.5,0.7l0,2.1l4.2,2.3l-6.3,6.6l-4,0l-4-4.1l-4.5,0.1l-0.6,4.9l2.6,3.2l-3.1,9.9l-3.6,0.3l-5.7,3.6l-1.4,7.1l5,5.3l0.9-1l3.5-0.9 l3,5l8.5-3.7l3.3,0.2l2.3,8.1l12.2,3.9l2.1,6.4l5.2,0.6l2.5,6.1l-1.7,5.5l2.2,2.9l-0.3,4.3l5.8-0.5l5.4,6.8l-0.4,4.8l3.2,2.7 l-7.6,11.5L314.2,438.9L314.2,438.9z" /> 
<path id="belize" fill="#39393B" d="M204.6,282.4l-0.1,3.6h0.8l2.9-5.3h-1.9L204.6,282.4L204.6,282.4z" /> 
<path id="russia" fill="#39393B" d="M818,72.9l1.8,6.1l3.5,1l3.5-5.6l-2-3.8l0.8-3.3h5.3l-1.3,2.5L830,79l-7.5,18.7l0.8,4.1 l-0.3,6.8l14.1,20.5l2.8,0.8l0.3-16.7l2.8-2.5l-3-6.6l2.5-2.8l-5.5-7.3l-3,0.3l-1-12.2l7.8-2l0.5-3.6l4-1l2.3,2l2.8-11.1l4.8-8.1 l3.8-2l3.3,0.3v-3.8l-5.3-1l-7.3-6.1l3.5-4l-3-6.8l2.5-2.5l3,4l7.5,2.8l8.3,0.8l1-3.5l-4.3-4.3l4.8-6.6l-10.8-3.8l-2.8,5.6l-3.5-4.6 l-19.8-6.8L816.9,19l-2.8,1.5V22l4,2l-0.5,4.8l-7.3-3l-16.1,6.3l-2.8-5.8h-11.1l-5,5.3l-17.8-4l-16.3,3.3l-2,5.1l2.5,0.8l-0.3,3.8 l-15.8,1.8l1,5.1l-14.6-2.5l3.5-6.6l-14.8-0.8l1.3,6.8l-4.8,2.3l-4-3.8L677,45.6l-6.3,5.8l-0.3,3.5l-4,0.3l-0.5-4L678.7,40v-7.6 l-8.3-2.3l-10.8,3.5l-4.5-4.6h-2l-2.5,5.1l2,2.3l-14.3,7.8L626,53.7l-7.5,10.4v4.3l8,3.3l-4,3l-8.5-3l-3.5,3l-5.3-6.1l-1,2.3 l5.8,18.2l1.5,0.5l4-2l2,1.5v3.3l-3.8-1.5l-2.3,1.8l1.5,3.3l-1.3,8.6l-7.8,0.8l-0.5-2.8l4.5-2.8l1-7.6l-5-6.6l-1.8-11.4l-8-1.3 l-0.8,4.1l1.5,2l-3.3,2.8l1.3,7.6l4.8,2l1,5.6l-4.8-3l-12.3-2.3l-1.5,4.1l-9.8,3.5l-1.5-2.5l-12.8,7.1l-0.3,4.8l-5,0.8l1.5-3.5v-3.5 l-5-1.8l-3.3,1.3l2.8,5.3l2,3.5v2.8l-3.8-0.8l-0.8-0.8l-3.8,4.1l2,3.5l-8.5-0.3l2.8,3.6l-0.8,1.5h-4.5l-3.3-2.3l-0.8-6.3l-5.3-2 v-2.5l11.1,2.3l6,0.5l2.5-3.8l-2.3-4.1l-16.1-6.3l-5.5,1.4l-1.9,1.6l0.6,3.8l2.4,0.4l-0.5,5.9l7.3,17.1l-5.3,8.3l-0.4,1.9l2.7,1.9 l-2.4,1.6l-1.6,0l0.3,7.4l2.2,3.1l0,3l2.8,0.3l4.3,1.6l4.6,6.3l0,1.7l-1.5,2.6l3.4-0.2l3.3,1l4.5,6.4l11.1,1l-0.5,7.6l-3.8,3.3 l0.8,1.3l-3.8,4.1l-1,3.8l2.3,3.3l7.3,2.5l3-1.8l19.3,7.3l0.8-2l-4-3.8v-4.8l-2.5-0.8l0.5-4.1l4-4.8l-7.2-5.4l0.5-7.5l7.7-5.1l9,0.5 l1.5,2.8l9.3,0.5l6.8-3.8l-3.5-3.8l0.8-7.1l17.6-8.6l13.5,6.1l4.5-4.1l13.3,12.7l10-1l3.5,3.5l9.5,1l6.3-8.6l8,3.6l4.3,0.8l4.3-3.8 L692,159l3.3-5.1l9.3,3l2,4.1l4,0.3l2.5-1.8l6.8-0.3l0.8,1.8l7.8,0.5l5.3-5.6l10.8,1.3l3.3-1.3l1-6.1l-3.3-7.3l3.3-2.8h10.3 l9.8,11.6l12.6,7.1h3.8l0.5-3l4.5-2.8l0.5,16.5l-4,0.3v4.1l2.3,2.8l-0.4,3.6l1.7,0.7l1-2.5l1.5,0.5l1,1l4.5-1l4.5-13.2l0.5-16.5 l-5.8-13.2l-7.3-8.9l-3.5,0.5v2.8l-8.5-3.3l3.3-7.1l2.8-18.7l11.6-3.5l5.5-3.5h6l-1.5,2l1.5,2.5l5.3-5.6l3,0.3l-0.5-3.3l-4.8-1 l3.3-11.9L818,72.9L818,72.9z" /> 
<path id="china" fill="#39393B" d="M670.4,170.1l-3.5,8.7l-4.8-0.3l-5,11l4.3,5.4l-8.8,12.1l-4.5-0.8l-3,3.8l0.8,2.3l3.5,0.3 l1.8,4.1l3.5,0.8l10.8,13.9v7.1l5.3,3.3l5.8-1l7.3,4.3l8.8,2.5l4.3-0.5l4.8-0.5l10-6.6l3.3,0.5l1.3,3l2.8,0.8l3.8,5.6l-2.5,5.6 l1.5,3.8l4.3,1.5l0.8,4.6l5,0.5l0.8-2.3l7.3-3.8l4.5,0.3l5.3,5.8l3.5-1.5l2.3,0.3l1,2.8l1.8,0.3l2.5-3.5l10-3.8l9-10.9l3-10.4 l-0.3-6.8l-3.8-0.8l2.3-2.5l-0.5-4.1l-9.5-9.6v-4.8l2.8-3.5l2.8-1.3l0.3-2.8h-7l-1.3,3.8l-3.3-0.8l-4-4.3l2.5-6.6l3.5-3.8l3.3,0.3 l-0.5,5.8l1.8,1.5l4.3-4.3l1.5-0.3l-0.5-3.3l4-4.8l3,0.3l1.8-5.6l2.1-1.1l0.2-3.5l-2-2.1l-0.2-5.5l3.8-0.3l-0.3-14.1l-2.7,1.6 l-1,3.6l-4.5,0l-13.1-7.4l-9.4-11.4l-9.6-0.1l-2.4,2.1l3.1,7.1l-1.1,6.7l-3.9,1.6l-2.2-0.2l-0.2,6.6l2.3,0.5l4-1.8l5.3,2.5v2.5 l-3.8,0.3l-3,6.6l-2.8,0.3l-9.8,12.9l-10.3,4.6l-7,0.5l-4.8-3.3l-6.8,3.6l-7.3-2.3l-1.8-4.8l-12.3-0.8l-6.5-10.6h-2.8l-2.2-4.9 L670.4,170.1z" /> 
<path id="mongolia" fill="#39393B" d="M673.8,170.2l5.8-7.7l7,3.2l4.8,1.3l5.8-5.3l-4-2.9l2.6-3.7l7.8,2.7l2.7,4.4l4.9,0.1l2.5-1.9 l5.2-0.2l1.1,1.9l8.7,0.4l5.5-5.6l7.6,0.8l-0.4,7.6l3.3,0.8l4.1-1.9l4.3,2.1l-0.1,1.1l-3.1,0.1l-3.3,6.9l-2.5,0.3l-9.9,12.9 l-10.1,4.4l-6.3,0.5l-5.2-3.4l-6.7,3.6l-6.6-2.1l-1.9-4.8l-12.5-0.9l-6.4-10.9l-3.1-0.2L673.8,170.2L673.8,170.2z" /> 
<path id="north_korea" fill="#39393B" d="M778.3,194.3l1.8,0.8l0.6,6.4l3.7,0.2l3.4-4l-1.2-1.1l0.1-4.3l3.2-3.8l-1.6-2.9l1-1.2 l0.6-3l-1.8-0.8l-1.6,0.8l-1.9,5.9l-3.1-0.3l-3.6,4.3L778.3,194.3L778.3,194.3z" /> 
<path id="south_korea" fill="#39393B" d="M788.3,198.2l6.2,5l1,4.9l-0.2,2.6l-3,3.4l-2.6,0.1l-3-6.4l-1.1-3l1.2-0.9l-0.3-1.3 l-1.5-0.7L788.3,198.2L788.3,198.2z" /> 
<path id="kazakhstan" fill="#39393B" d="M576.7,188.6l4.1-1.8l4.6-0.2l0.3,7H583l-2,3.3l2.7,4.4l4,2.2l0.4,2.6l1.5-0.5l1.3-1.6 l2.2,0.5l1.1,2.2h2.8v-2.9l-1.7-5.1l-0.8-4.1l5-2.2l6.8,1.1l4.3,4.3l9.6-0.9l5.4,7.6l6.3,0.3l1.7-2.9l2.2-0.5l0.3-3.2l3.3-0.2 l1.7,2.1l1.7-4.1l15,2.1l2.5-3.3l-4.3-5.3l5.7-12.4l4.6,0.3l3.2-7.6l-6.3-0.6l-3.6-3.5l-10,1.2l-12.9-12.4l-4.5,4l-13.8-6.3 l-16.9,8.3l-0.5,5.9l4,4.6l-7.7,4.4l-10-0.2l-2.1-3.1l-7.8-0.4l-7.4,4.8l-0.2,6.5L576.7,188.6L576.7,188.6z" /> 
<path id="turkmenistan" fill="#39393B" d="M593.8,207.6l-0.6,2.6h-4.2v3.6l4.5,2.9l-1.4,4v1.9l1.8,0.3l2.5-3.3l5.5-1.2l11.8,4.5 l0.2,3.3l6.6,0.6l7.4-7.8l-0.9-2.5l-4.9-1.1l-13.8-9l-0.6-3.3h-5.2l-2.3,4.3h-2.3L593.8,207.6L593.8,207.6z" /> 
<path id="uzbekistan" fill="#39393B" d="M628.9,219.1l3.1,0.2v-5.3l-2.9-1.7l4.9-6.2h2l2,2.3l5.2-2l-7.2-2.5l-0.3-1.5l-1.7,0.4 l-1.7,2.9l-7.3-0.2l-5.3-7.6l-9.4,0.9l-4.5-4.4l-6.2-1.1l-4.5,1.8l2.6,8.7l0,2.9l1.9,0l2.3-4.4l6.2,0.1l0.9,3.4l13.3,8.8l5.1,1.2 L628.9,219.1L628.9,219.1z" /> 
<path id="tajikistan" fill="#39393B" d="M630.2,211.8l4.1-5.1h1.5l0.5,1.1l-1.9,1.4v1.1l1.3,0.9l6,0.4l2-0.8l0.9,0.2l0.6,1.9 l3.6,0.4l1.8,3.8l-0.5,1.1l-0.7,0.1l-0.7-1.4l-1.5-0.1l-2.7,0.4l-0.2,2.5l-2.7-0.2l0.1-3.2l-2-1.9l-3,2.5l0.1,1.6l-2.6,0.9h-1.5 l0.1-5.6L630.2,211.8L630.2,211.8z" /> 
<path id="kirgizstan" fill="#39393B" d="M636.8,199.2l-0.3,2.5l0.3,1.6l8.7,2.9l-7.6,3.1l-0.9-0.7l-1.7,1.1l0.1,0.6l0.9,0.4l5.4,0.1 l2.7-0.8l3.5-4.4l4.4,0.8l5.3-7.3l-14.1-1.9l-2,4.7l-2.5-2.6L636.8,199.2L636.8,199.2z" /> 
<path id="afghanistan" fill="#39393B" d="M614.1,227.1l1.6,12.5l4,0.9l0.4,2.2l-2.8,2.4l5.3,4.3l10.3-3.7l0.8-4.4l6.5-4l2.5-9.4 l1.8-2l-1.9-3.3l6.3-3.9l-0.8-1.1l-2.9,0.2l-0.3,2.7l-3.9,0l-0.1-3.6l-1.3-1.5l-2.1,1.9l0.1,1.8l-3.2,1.2l-5.8-0.4l-7.6,8 L614.1,227.1L614.1,227.1z" /> 
<path id="pakistan" fill="#39393B" d="M623.1,249.8l2.6,3.9l-0.3,2l-3.5,1.4l-0.3,3.2h4l1.4-1.1h7.5l6.8,6l0.9-2.9h5.1l0.1-3.6 l-5.2-5l1.1-2.7l5.3-0.4l7.2-14.9l-4-3.1l-1.5-5.2l9.6-0.9l-5.7-8.1l-3-0.8l-1.2,1.5l-0.9,0.1l-5.7,3.6l1.9,3.1l-2.1,2.2l-2.6,9.6 l-6.4,4.1l-0.9,4.5L623.1,249.8L623.1,249.8z" /> 
<path id="india" fill="#39393B" d="M671,313l4.6-2.2l2.7-9.8l-0.1-12.1l15.6-16.8v-4l3.2-1.3l-0.1-4.6l-3.5-6.7l2-3.6l4.3,4l5.6,0.3 v2.2l-1.7,1.9l0.4,1l3,0.1l0.6,3.4h0.9l2.2-4l1.1-10.5l3.7-2.6l0.1-3.6l-1.5-2.9l-2.3-0.1l-9.2,6.1l0.6,3.9l-6.5,0l-2.3-2.8 l-1.2,0.2l0.4,3.9l-14-1l-8.7-3.9l-0.5-4.8l-5.8-3.6l-0.1-7.4l-4-4.5l-9.1,0.9l1,4l4.5,3.6l-7.7,15.8l-5.2,0.4l-0.8,1.9l5.1,4.7 l-0.3,4.8l-5.2-0.1l-0.6,2.4l4.3-0.2l0.1,1.9l-3.1,1.6l2,3.7l3.8,1.3l2.3-1.7l1.1-3.1l1.4-0.6l1.6,1.6l-0.5,4l-1.1,1.9l0.3,3.2 L671,313L671,313z" /> 
<path id="nepal" fill="#39393B" d="M671.2,242.6l0.5,4.3l8.1,3.7l13,1l-0.5-3.1l-8.7-2.4l-7.3-4.4L671.2,242.6L671.2,242.6z" /> 
<path id="bhutan" fill="#39393B" d="M695.4,248.1l1.5,2.1l5.2,0l-0.5-2.9L695.4,248.1L695.4,248.1z" />
<path id="bangladesh" fill="#39393B" d="M695.6,253.1l-1.3,2.4l3.4,6.5l0.1,5l0.6,1.4l4,0.1l2.3-2.2l1.6,1l0.3,3.1l1.3-0.8l0.1-3.9 l-1.1-0.1l-0.7-3.3l-2.8-0.1l-0.7-1.9l1.7-2.3l0-1.1h-4.9L695.6,253.1L695.6,253.1z" /> 
<path id="burma" fill="#39393B" d="M729.4,303.6l-2.8-4.4l2-2.8l-1.9-3.5l-1.8-0.3l-0.3-5.9l-2.7-5.2l-0.8,1.2l-1.8,3l-2.2,0.3 l-1.1-1.5l-0.6-4l-1.7-3.2l-6.8-6.5l1.7-1.1l0.3-4.7l2.5-4.2l1.1-10.4l3.6-2.5l0.1-3.8l2.2,0.7l3.4,4.9l-2.5,5.4l1.7,4.3l4.2,1.7 l0.8,4.6l5.7,0.9l-1.6,2.7l-7.2,2.8l-0.8,4.6l5.3,6.8l0.2,3.6l-1.2,1.2l0.1,1.1l3.9,5.8l0.1,6L729.4,303.6L729.4,303.6z" />
<path id="thailand" fill="#39393B" d="M730,270.5l3.2,4.2v5.1l1.1,0.6l5.2-2.5l1,0.3l6.2,7.1l-0.2,4.9l-2-0.3l-1.8-1.1l-1.3,0.1 l-2.3,3.9l0.5,2.1l1.9,1l-0.1,2.4l-1.3,0.7l-4.6-3.2v-2.8l-1.9-0.1l-0.8,1.2l-0.4,12.6l3,5.4l5.3,5.1l-0.2,1.5l-2.8-0.1l-2.6-3.8 h-2.7l-3.4-2.7l-1-2.8l1.5-2.4l0.5-2.1l1.6-2.8l-0.1-6.4l-3.9-5.6l-0.2-0.7l1.3-1.3l-0.3-4.4l-5.1-6.5l0.6-3.8L730,270.5L730,270.5z " />
<path id="malaysia" fill="#39393B" d="m 732.7,315.5 2,4.5 0.5,5.9 2.7,4.2 6.5,3.9 c 2,-3.9 0,0 2,-3.9 l -2.1,-5.2 -3.1,-6.6 -0.3,1.2 -3.8,-0.2 -2.7,-3.9 z" sodipodi:nodetypes="cccccccccccc" />
<path id="cambodia" fill="#39393B" d="M740.5,299.5l4.1,4.4l7.6-5.6l0.7-8.9l-3.9,2.7l-2-1.1l-2.8-0.4l-1.5-1.1l-0.8,0l-2,3.3 l0.3,1.5l2.1,1.1l-0.3,3.1L740.5,299.5L740.5,299.5z" />
<path id="laos" fill="#39393B" d="M735.5,262.9l-2.4,1.2l-2,5.9l3.4,4.3l-0.6,4.7l0.6,0.2l5.6-2.7l7.5,8.4l-0.2,5.3l1.6,0.9l4-3.3 l-0.3-2.6l-11.6-11l0.1-1.7l1.5-1l-1-2.8l-4.8-0.8L735.5,262.9L735.5,262.9z" />
<path id="vietnam" fill="#39393B" d="M745.1,304.5l1.2,1.9l0.2,2.1l3.1,0.3l3.8-5.1l3.6-1l1.9-5.2l-0.9-8.3l-3.7-5.1l-3.9-3.1 l-5-8.5l3.5-5.9l-5.1-5.8l-4.1-0.2l-3.7,2l1.1,4.7l4.9,0.9l1.3,3.6l-1.7,1.1l0.1,0.9l11.5,11.2l0.5,3.3l-0.7,10.4L745.1,304.5 L745.1,304.5z" />
<path id="georgia" fill="#39393B" d="M555.5,204.2l3.3,4.3l4.1,1.9l2.5,0l4.3-1.2l1.1-1.7l-12.8-4.8L555.5,204.2L555.5,204.2z" />
<path id="armenia" fill="#39393B" d="M569.7,209.9l4.8,6.3l-1.4,1.6l-3.4-0.6l-4.2-3.8l0.2-2.5L569.7,209.9L569.7,209.9z" />
<path id="azerbaijan" fill="#39393B" d="M571.4,207.7l-1,1.7l4.7,6.2l1.6-0.5l2.7,2.8l1.2-5l2.9,0.5l-0.1-1.4l-4.8-4.2l-0.9,2.5 L571.4,207.7L571.4,207.7z" />
<path id="iran" fill="#39393B" d="M569.7,217.9l-1.2,1.3l0.1,2l1.5,2.1l5.4,5.9l-0.8,2.4h-0.9l-0.5,2.4l3,3.9l2.8,0.2l5.6,7.8 l3.2,0.2l2.5,1.8l0.1,3.5l9.7,5.7h3.6l2.2-1.9l2.8-0.1l1.6,3.8l10.5,1.5l0.3-3.9l3.5-1.3l0.2-1.4l-2.8-3.8l-6.2-5l3.2-2.9l-0.2-1.3 l-4.1-0.6l-1.7-13.7l-0.2-3.1l-11-4.2l-4.9,1.1l-2.7,3.4l-2.4-0.2l-0.7,0.6l-5.4-0.4l-6.8-5l-2.5-2.8l-1.2,0.3l-2.1,2.4L569.7,217.9 L569.7,217.9z" />
<path id="turkey" fill="#39393B" d="M558.7,209.2l-2.2,2.4l-8.2-0.2l-4.9-2.9l-4.8-0.1l-5.5,3.9l-5.2,0.2l-0.5,2.9h-5.9l-2.3,2.1 v1.2l1.4,1.2v1.3l-0.6,1.5l0.6,1.3l1.9-0.9l1.9,2l-0.5,1.4l-0.7,0.9l1,1.2l5.2,1.1l3.6-1.5v-2.2l1.8,0.4l4.2,2.5l4.6-0.7l2-1.9 l1.3,0.5v2.1h1.8l1.5-2.9l13.4-1.4l5.8-0.7l-1.5-2l0-2.7l1.2-1.4l-4.3-3.4l0.2-2.9h-2.3L558.7,209.2L558.7,209.2z" />
<path id="yemen" fill="#39393B" d="M572,289.2l1.4,4.3v4.2l3.5,3.1l24.4-9.9l0.2-2.7l-3.9-7l-9.8,3.1l-5.6,5.5l-6.5-3.9L572,289.2 L572,289.2z" />
<path id="oman" fill="#39393B" d="M598.4,280.8l7.4-4.3l1.3-6.3l-1.6-0.9l0.7-6.7l1.4-0.8l1.5,2.4l9,4.7v2.6l-10.9,16l-5,0.2 L598.4,280.8L598.4,280.8z" />
<path id="emirates" fill="#39393B" d="M594,264.9l0.9,3.5l9.9,0.9l0.7-7.1l1.9-1l0.5-2.6l-3.1,0.9l-3.5,5.2L594,264.9L594,264.9z" />
<path id="qatar" fill="#39393B" d="M592.6,259l-0.5,4l1.5,1.2l1.4-0.1l0.5-5l-1.2-0.9L592.6,259L592.6,259z" />
<path id="kuwait" fill="#39393B" d="M583.3,247.2l-2.3-1.2l-1.6,1.6l0.2,3.1l3.6,1.4L583.3,247.2L583.3,247.2z" />
<path id="saudi" fill="#39393B" d="M584,253.2l7,9.8l2.3,1.8l1,4.4l10.8,0.9l1.2,0.6l-1.2,5.4l-7.1,4.2l-10.4,3.1l-5.5,5.4l-6.6-3.8 l-4,3.5l-5.5-9.1l-3.8-1.7l-1.4-2.1V271L547,254.3l-0.5-3h4l4.8-4.2l0.2-2.1l-1.4-1.4l2.8-2.3l5.9,0.4l10,8.4l5.9-0.3l0.4,1.5 L584,253.2L584,253.2z" />
<path id="syria" fill="#39393B" d="M546.7,229.1l-0.3,2.5l2.8,1.2l-0.1,7l2.8-0.1l2.8-2.1l1.1-0.2l6.4-5.1l1.3-7.4l-12.8,1.3l-1.3,3 L546.7,229.1L546.7,229.1z" />
<path id="iraq" fill="#39393B" d="M564.3,225l-1.6,7.7l-6.5,5.4l0.4,2.5l6.3,0.4l10,8.2l5.6-0.2l0.2-1.9l2.1-2.2l2.9,1.6l0.4-0.4 l-5.6-7.4l-2.6-0.2l-3.5-4.5l0.7-3.3l1.1-0.1l0.4-1.5l-4.8-5L564.3,225L564.3,225z" />
<path id="jordan" fill="#39393B" d="M548.9,240.8l-2.5,8.6l-0.1,1.3h3.9l4.3-3.8l0.1-1.4l-1.8-1.8l3.2-2.6l-0.5-2.4l-0.9,0.2 l-2.6,1.9L548.9,240.8L548.9,240.8z" />
<path id="lebanon" fill="#39393B" d="M546.2,232.4l0.1,1.9l-0.8,3l2.8,0.2l0.2-4.2L546.2,232.4L546.2,232.4z" />
<path id="israel" fill="#39393B" d="M545.3,238.1l-1.6,5l2,6l2.3-8.8v-1.9L545.3,238.1L545.3,238.1z" />
<path id="cyprus" fill="#39393B" d="M543.2,229.8l1.2,0.9l-3.8,3.6l-1.8-0.1l-1.3-0.9l0.2-1.8l2.8-0.2L543.2,229.8L543.2,229.8z" />
<path id="norway" fill="#39393B" d="M515.5,102.1l2-1.5l-0.2-1.7l-1.3-0.7l0.2-2h1.1v-1.1l-4.8-1.3l-7.1,0.7l-0.7,3.1l-1.6-0.5 l-1.1-1.8l-3.5,0.2L498,99l-1.6,0.7l-0.9-1.8l-7.3,5.9l1.5,1.7l-2.8,1.3l-6.2,12.4l-2.2,1.5l0.2,1.1l2.2,1.1l-0.5,2.4l-3.7-0.2 l-1.1-1.3l-2.4,2.8l-1.5,1.1l-0.4,2.6L470,131l-3.3,0.7l-1.6,5.2l1.1,8.5l1.3,3.9l1.5,1.5l3.3-0.2l4.8-4.6l1.8-3.1l0.5,4.6l3.1-5.5 l0.2-15.5l2.5-1.6l0.8-8.6l7.7-11.1l3.7-1.3l1.6-2l5.5,1.3l2.8,1.7l0.9-4.6l4.6-2.8L515.5,102.1L515.5,102.1z" />
<path id="britain" fill="#39393B" d="M446.1,149.1l-1.8,2.8l0.7,1.1h4.2v1.9l-1.1,1.5l0.7,3.9l2.4,4.6l1.8,4.3l2.9,1.1l1.3,2.2 l-0.2,2l-1.8,1.1l-0.2,0.9l1.3,0.7l-1.1,1.5l-2.6,1.1l-5-0.6l-7.7,3.5l-2.6-1.3l7.3-4.3l-0.9-0.6l-3.9-0.4l2.4-3.5l0.4-3l3.1-0.4 l-0.5-5.7l-3.7-0.2l-1.1-1.3l0.2-4.3l-2.2,0.2l2.2-7.4l4-3L446.1,149.1L446.1,149.1z" />
<path id="ulster" fill="#39393B" d="M438.4,161.5l-3.3,0.4l-0.2,3l2.2,1.5l2.4-0.6l0.9-1.7L438.4,161.5L438.4,161.5z" />
<path id="ireland" fill="#39393B" d="M439.5,166.6l-0.9,6l-8.1,3H428l-1.8-1.3v-1.1l4-2.6l-1.1-2.2l0.2-3.1l3.5,0.2l1.6-3.8 l-0.2,3.3l2.7,2.1L439.5,166.6L439.5,166.6z" />
<path id="sweden" fill="#39393B" d="M497.7,104.6l2,1.8h3.7l2,3.9l0.5,6.7l-5,3.5v3.5l-3.5,4.8l-2,0.2l-2.8,4.6l0.2,4.4l4.8,3.5 l-0.4,2l-1.8,2.8l-2.8,2.4l0.2,7.9l-4.2,1.5l-1.5,3.1h-2l-1.1-5.5l-4.6-7l3.8-6.3l0.3-15.6l2.6-1.4l0.6-8.9l7.4-10.6L497.7,104.6 L497.7,104.6z" />
<path id="finland" fill="#39393B" d="M506.8,116.9l2.1,0.9l1.3,2.4l-1.3,1.7l-6.4,7l-1.1,3.7l1.5,5.4l5,3.7l6.6-3.1l5.3-0.7l5-7.9 l-3.7-8.7l-3.5-8.3l0.5-5.4l-2.2-0.4l-0.6-3.9l-3-4.8l-3.3,2.3l-1.3,5.3l-3.5-2.1l-4.8-1.2l-1.1,1.3l1.9,1.7l3.4-0.1l2.7,4.4 L506.8,116.9L506.8,116.9z" />
<path id="path302" fill="#39393B" d="M518.1,151.4l-6.9-1.1l0.1,3.8l6.3,3.9l2.6-0.8l-0.2-2.9L518.1,151.4L518.1,151.4z" />
<path id="hiumaa" fill="#39393B" d="M506.8,147.6l-1.5-0.1l-0.9,0.9l0.6,1l1.5,0.1l0.8-1.2L506.8,147.6L506.8,147.6z" />
<path id="saaremaa" fill="#39393B" d="M506.6,151.7l-1.5-0.1l-2.7,3.2v1.5l0.9,0.4l1.8,0.1l2.9-2.4l0.4-0.8L506.6,151.7L506.6,151.7 z" />
<path id="lithuania" fill="#39393B" d="M510.8,154.7l-2.1-0.1l-3,2.8h-2.5l0.1,3.5l-1.5,2.8l5.4,0.1l1.5-0.2l1.5,1.9l3.6-0.1 l3.4-4.3l-0.2-2.6L510.8,154.7L510.8,154.7z" />
<path id="belarus" fill="#39393B" d="M510.7,166.3l1.5,2.5l-0.6,2l0.1,1.6l0.5,1.9l3.1-1.8l3.8,0.1l2.7,1.1h6.8l2-4.8l1.2-1.8v-1.2 l-4.3-6.1l-3.8-1.5l-3.1-0.4l-2.7,0.9l0.1,2.7l-3.8,4.7L510.7,166.3L510.7,166.3z" />
<path id="poland" fill="#39393B" d="M511.5,174.8l0.9,1.6l0.2,1.7l-0.7,1.6l-1.6,3.1l-1.4,0.6l-1.8-0.8l-1,0.1l-2.5,1l-2.9-0.9 l-4.7-3.3l-4.6-2.5l-1.9-2.8l-0.4-6.6l3.6-3.1l4.7-1.6l1.8-0.2l-0.7,1.4l0.5,0.6l7.9,0.1l1.7-0.1l2.8,4.3l-0.7,1.8l0.3,2.1 L511.5,174.8L511.5,174.8z" />
<path id="spain" fill="#39393B" d="M448.4,205h-12.7l-2.6-1.2l-1.2,0.1l-1.5,3.1l0.5,3.2l4.9,0.4l0.6,2.1l-2.1,11.9l0.1,2.1l3.5,1.9 l4,0.3l8-2l3.9-4.9l0.1-5l6.9-6.2l0.4-2.8l-6.3-0.1L448.4,205L448.4,205z" />
<path id="portugal" fill="#39393B" d="M430.9,211.2l-0.6,8.6l-1.8,1.6l0.2,1l1.2,2.1l-0.8,2.5l1.3,0.4l3.1-0.4l-0.2-2.5l2-11.6 l-0.4-1.6L430.9,211.2L430.9,211.2z" />
<path id="majorca" fill="#39393B" d="M461.1,217.2l-1.6,0.5l0.4,1.4h2.3l1-1.1L461.1,217.2L461.1,217.2z" />
<path id="sardinia" fill="#39393B" d="M477.6,213.4l-2.6,1.3l0.4,5.2l2.1,0.4l1.6-1.5v-4.9L477.6,213.4L477.6,213.4z" />
<path id="corsica" fill="#39393B" d="M477.8,207l-2,2l-0.2,1.8l1.6,1l0.6-0.1l0.4-2.6L477.8,207L477.8,207z" />
<path id="france" fill="#39393B" d="M460.4,178.7l-2.2,0.5l-4.4,4.8l-1.3,0.1l-1.8-1.3l-1.1,0.3l-0.9,2.8l-6.5,0.2l0.2,1.4l4.4,2.9 l5.1,4.1l-0.1,4.9l-2.7,4.8l5.9,2.9l6,0.2l1.9-2.1l3.8,0.1l1.1,1l3.8-0.3l2-2.5l-2.5-2.9l-0.2-1.9l0.5-2.1l-1.2-1.8l-2.1,0.6 l-0.3-1.6l4.7-5.2v-3.1l-3.1-1.8l-1.6-0.3L460.4,178.7L460.4,178.7z" />
<path id="netherlands" fill="#39393B" d="M470.1,168.3l-4.5,2.2l1,0.9l0.1,2.2l-1-0.2l-1.1-1.6l-2.5,4l3.9,0.8l1.5,1.5l0.8,0 l0.5-3.5l2.5-1L470.1,168.3L470.1,168.3z" />
<path id="belgium" fill="#39393B" d="M461.6,176.5l-0.6,1.6l6.9,4.5l2,0.5l0.1-2.1l-1.7-1.9h-1.1l-1.5-1.6L461.6,176.5L461.6,176.5z " />
<path id="germany" fill="#39393B" d="M471.1,167.9l3.6-0.6v-2.5l3-0.5l1.6,1.6l1.7,0.2l2.7-1.2l2.4,0.7l2.1,1.8l0.3,6.9l2.1,2.8 l-2.8,0.4l-4.6,2.9l0.4,1l4.1,3.9l-0.3,1.9l-3.9,1.9l-3.6,0.1l-0.9,1.8h-1.8l-0.9-1.9l-3.2-0.8l-0.1-3.2l-2.7-1.8l0.3-2.3l-1.8-2.5 l0.5-3.3l2.5-1.2L471.1,167.9L471.1,167.9z" />
<path id="denmark" fill="#39393B" d="M476.8,151.5l-4.1,4.6l-0.1,3l1.9,4.9l3-0.6l-0.4-4l2-2.3l0-1.8l-1.4-3.7L476.8,151.5 L476.8,151.5z" />
<path id="sjlland" fill="#39393B" d="M481.4,159.6l-0.9,0l-1.2,1.1l0.1,1.8l2.9,0.1l0.1-2L481.4,159.6L481.4,159.6z" />
<path id="gotland" fill="#39393B" d="M498.5,150.2l-2.1,1.7l1.1,2.4l1.9-1.8L498.5,150.2L498.5,150.2z" />
<path id="switzerland" fill="#39393B" d="M472.9,189.4l-4.4,4.6l0.1,0.5l1.8-0.6l1.6,2.2l2.7-1l1.9,1.5l0.8-0.4l2.3-3.6l-0.6-0.6 l-2.3-0.1l-1.1-2.3L472.9,189.4L472.9,189.4z" />
<path id="czech" fill="#39393B" d="M488.4,184.9h3h1.5l2.4,1.7l4.4-3.6l-4.3-3l-4.2-2l-2.9,0.5l-3.9,2.5L488.4,184.9L488.4,184.9z" />
<path id="slovakia" fill="#39393B" d="M495.8,187.1l0.7,0.6l0.1,1l7.6-0.2l5.6-2.4l-0.1-2.5l-1.1,0.5l-1.5-0.8l-1,0l-2.5,1l-3.4-0.8 L495.8,187.1L495.8,187.1z" />
<path id="austria" fill="#39393B" d="M480.6,190.1l-0.6,1.4l0.6,1l2.3-0.5h2l2.1,1.8l4.6-0.8l3.4-2l0.9-1.4l-0.1-1.7l-3-2.3l-4,0 l-0.3,2.3L484,190L480.6,190.1L480.6,190.1z" />
<path id="hungary" fill="#39393B" d="M496.7,189.6l-1.2,1.8l0.1,2.8l1.9,0.9l5.7,0.2l7.9-6.7l0-1.5l-0.9-0.4l-5.7,2.6L496.7,189.6 L496.7,189.6z" />
<path id="slovenia" fill="#39393B" d="M494.8,192l-2.5,1.5l-4.7,1l1,2.7l3.3,0l3.1-2.6L494.8,192L494.8,192z" />
<path id="croatia" fill="#39393B" d="M495.6,195.2l-3.5,2.9h-3.6l-0.4,2.5l1.6,0.4l0.8-1.2l1.3,1.1l1,3.6l7.1,3.3l0.7-0.8l-7.2-7.4 l0.7-1.4l6.8-0.3l0.7-2.2l-4.4,0.1L495.6,195.2L495.6,195.2z" />
<path id="bosnia" fill="#39393B" d="M494.8,198.9l-0.4,0.6l6.7,6.9l2.5-3.6l-0.1-1.4l-2.1-2.6L494.8,198.9L494.8,198.9z" />
<path id="italy" fill="#39393B" d="M472.3,197l-0.6,1.6l0.2,1.7l2.4,2.8l3.8-0.1l8.3,9.6l5.2,1.5l3.1,2.9l0.7,6.6l1.6-1l1.4-3.6 l-0.4-2.6l2.4-0.2l0.4-1.5l-6.9-3.3l-6.5-6.4l-2.6-3.8l-0.6-3.6l3.3-0.8l-0.9-2.4l-2-1.7l-1.8-0.1l-2.4,0.7l-2.3,3.2l-1.4,0.9 l-2.1-1.3L472.3,197L472.3,197z" />
<path id="sicily" fill="#39393B" d="M492.4,223l-1.5-0.8l-5,0.8l0.2,1.3l4.5,2.2l0.7,0.7l1.2,0.2L492.4,223L492.4,223z" />
<path id="malta" fill="#39393B" d="M492.6,230.5l-1.7,0.3l0.1,1.9l1.5,0.5l0.7-0.6L492.6,230.5L492.6,230.5z" />
<path id="ukraine" fill="#39393B" d="M515.6,173.1l-2.9,1.6l0.7,3.1l-2.7,5.6l0,2.5l1.3,0.8l8.1,0.4l2.3-1.9l2.4,0.8l3.5,4.6 l-2.5,4.6l3,0.9l4-4.6l2.3,0.4l2.1,1.5l-1.8,2.4l2.5,3.9h2.7l1.4-2.6l2.8-0.6l0.1-2.1l-5.2-0.8l0.2-2.3h5.1l5.5-4.4l2.4-2.1l0.4-6.7 l-10.8-1l-4.4-6.3l-3.1-1.1l-3.7,0.2l-1.7,4.1l-7.6,0.1l-2.5-1.1L515.6,173.1L515.6,173.1z" />
<path id="moldova" fill="#39393B" d="M520.8,187.7l3.1,4.8l-0.3,2.7l1.1,0.1l2.6-4.4l-3.2-3.9l-1.8-0.7L520.8,187.7L520.8,187.7z" />
<path id="romania" fill="#39393B" d="M512.2,187.6l-0.3,1.5l-5.8,4.8l4.8,7.1l3.1,2.2h5.6l1.8-1.5l2.5-0.3l1.8,1.1l3.3-3.7l-0.6-1.9 l-3.3-0.9l-2.3-0.1l0.1-3.2l-3-4.7L512.2,187.6L512.2,187.6z" />
<path id="montenegro" fill="#39393B" d="M504.9,207.2l0-0.9l-1.3-1.9l-2.1,3l0.4,1.3l1.7,0.3L504.9,207.2z" />
<path id="serbia" fill="#39393B" d="M505.6,194.5l-2.1,1.5h-1l-0.7,2.1l2.4,2.8l0.2,2.2l-0.3,0.5l1.6,2.3l0.1,1.2l1.2,1.1l3.8-1.2 l-0.3-5.5L505.6,194.5z"><desc id="desc7821">includes kosovo</desc></path>
<path id="bulgaria" fill="#39393B" d="M511.4,202.4l0.2,5l1.7,3.5l6.3,0.1l2.8-2l2.8-1.1l-0.7-3.2l0.6-1.7l-1.4-0.7l-2,0.2l-1.5,1.5 l-6.4,0.1L511.4,202.4L511.4,202.4z" />
<path id="albania" fill="#39393B" d="M504,209.8v4.6l1.3,2.5l1-0.1l1.6-3l-1-1.3l-0.4-3.3l-1.3-1.2L504,209.8L504,209.8z" />
<path id="macedonia" fill="#39393B" d="M510.9,208l-3.4,1.1l0.2,2.9l0.8,1l4-1.9L510.9,208L510.9,208z" />
<path id="greece" fill="#39393B" d="M506.7,217.6l-0.1,1.3l4.6,2.3l2.2,0.9l-1.2,1.2l-2.6,0.3l-0.4,1.2l0.9,2l2.9,1.5l1.3,0.1 l0.2-3.4l1.9-2.3l-5.2-6.1l0.7-2.1l1.2-0.1l1.8,1.5l1.2-0.6l0.4-2.1l5.4,0.1l0.2-3.2l-2.3,1.6l-6.6-0.2l-4.3,2.2L506.7,217.6 L506.7,217.6z" />
<path id="thrace" fill="#39393B" d="M523,209.7l-0.2,3.6l3.1-0.9l1.4-0.9l-0.4-1.5l-1.5-1.2L523,209.7L523,209.7z" />
<path id="crete" fill="#39393B" d="M516.8,230.6l1.6,0.1l0.7,1h2.4l1.6-0.6l0.5,0.6l-1,1.4l-4.6,0.2l-0.8-1.1l-0.9-0.5L516.8,230.6 L516.8,230.6z" />
<path id="singapore" fill="#39393B" d="m 744.4,334 2.33116,0.65024 L 746.4,330.1 Z" />
</svg>